<svg xmlns="http://www.w3.org/2000/svg" xmlns:xlink="http://www.w3.org/1999/xlink" version="1.1" x="0px" y="0px" viewBox="0 0 100 125" enable-background="new 0 0 100 100" xml:space="preserve"><path d="M90.991,67.104c-0.058,0-0.203,0.025-0.258,0.046c-0.591,0.215-0.78,0.869-0.918,1.347  c-0.038,0.133-0.096,0.334-0.114,0.368c-0.062,0.062-0.221,0.164-0.36,0.255c-0.377,0.245-0.804,0.523-0.975,0.933  c-0.149,0.356-0.375,0.895-0.791,1.041c-0.352,0.124-0.609,0.348-0.836,0.546c-0.275,0.24-0.514,0.447-0.924,0.521  c-1.188,0.218-1.78,0.802-1.968,1.365c-0.093,0.281-0.232,0.706-0.398,0.902c-0.267,0.314-0.186,0.796-0.063,1.525  c0.069,0.415,0.186,1.109,0.096,1.327c-0.094,0.225-0.439,0.674-0.745,1.069c-0.5,0.646-1.018,1.316-1.157,1.847  c-0.145,0.546,0.027,1.231,0.178,1.836c0.065,0.261,0.164,0.655,0.157,0.739c-0.46,1.173,0.124,2.397,1.388,2.912  c0.21,0.086,0.423,0.13,0.633,0.13c0.521,0,0.928-0.263,1.287-0.494c0.255-0.164,0.495-0.319,0.76-0.379  c1.214-0.273,2.229-2.686,3.335-5.573c0.264-0.688,0.563-1.467,0.68-1.63c0.316-0.44,0.503-1.154,0.699-1.909  c0.141-0.542,0.316-1.215,0.484-1.424c0.108-0.135,0.229-0.239,0.344-0.342c0.394-0.352,0.883-0.789,0.924-1.95  c0.028-0.817-0.113-3.954-0.882-4.75C91.358,67.148,91.139,67.104,90.991,67.104z M91.447,72.077  c-0.025,0.735-0.25,0.936-0.59,1.239c-0.154,0.138-0.311,0.28-0.455,0.459c-0.305,0.377-0.477,1.036-0.675,1.801  c-0.157,0.604-0.335,1.288-0.544,1.577c-0.184,0.256-0.401,0.813-0.801,1.856c-0.548,1.43-1.831,4.777-2.621,4.955  c-0.438,0.099-0.779,0.319-1.082,0.515c-0.278,0.179-0.519,0.334-0.745,0.334c-0.081,0-0.164-0.019-0.256-0.056  c-0.746-0.304-1.089-0.971-0.833-1.622c0.133-0.341,0.022-0.784-0.118-1.347c-0.116-0.463-0.261-1.04-0.182-1.337  c0.089-0.336,0.584-0.977,0.981-1.491c0.394-0.51,0.734-0.95,0.878-1.299c0.199-0.482,0.081-1.19-0.033-1.874  c-0.043-0.257-0.106-0.632-0.101-0.788c0.256-0.342,0.412-0.817,0.555-1.248c0.045-0.137,0.392-0.466,1.169-0.607  c0.681-0.124,1.08-0.473,1.401-0.753c0.189-0.165,0.339-0.295,0.511-0.355c0.835-0.293,1.19-1.143,1.385-1.605  c0.05-0.119,0.417-0.357,0.594-0.473c0.198-0.129,0.386-0.251,0.521-0.386c0.195-0.195,0.275-0.475,0.369-0.799  c0.04-0.139,0.118-0.409,0.17-0.562C91.244,68.842,91.489,70.866,91.447,72.077z M93.501,34.569  c-0.219-0.256-0.519-0.355-1.08-0.268c-0.608,0.093-1.093,0.369-1.562,0.636c-0.568,0.324-1.105,0.63-1.88,0.63l-0.164-0.002  c-1.02,0-1.797,0.451-2.421,0.813c-0.45,0.262-0.839,0.487-1.25,0.501c-0.473,0-1.126-0.295-1.486-0.672  c-0.154-0.162-0.187-0.269-0.183-0.291c0.189-0.216,0.276-0.479,0.253-0.762c-0.067-0.789-0.99-1.539-1.883-2.265l-0.281-0.23  c-0.344-0.284-0.804-0.521-1.291-0.773c-0.902-0.466-1.925-0.994-2.079-1.809c-0.317-1.68-0.684-2.231-1.623-3.037  c-0.204-0.175-0.383-0.297-0.542-0.404c-0.448-0.302-0.652-0.44-0.914-2.126c-0.312-2.009-0.918-2.595-1.62-3.273  c-0.195-0.188-0.402-0.388-0.618-0.641c-0.387-0.453-0.607-0.93-0.913-1.59c-0.39-0.843-0.876-1.892-1.936-3.376  c-0.042-0.058-0.081-0.113-0.117-0.164c0.271-0.018,0.886-0.163,0.997-1.089c0.229-1.899-0.397-3.241-1.061-3.862  c-0.39-0.365-1.006-0.226-1.502-0.003c-0.198,0.089-0.418,0.188-0.665,0.165c-0.374-0.238-0.979-0.521-1.735-0.521  c-0.48,0-0.947,0.115-1.388,0.343c-0.82,0.425-1.689,0.54-3.735-0.007c-1.026-0.275-1.901-0.309-2.604-0.337  c-0.849-0.033-1.463-0.057-1.968-0.45c-0.967-0.753-2.777-0.452-3.418,0.464c-0.253,0.36-0.313,0.773-0.171,1.164  c0.095,0.261,0.069,0.562-0.062,0.75c-0.088,0.125-0.212,0.186-0.38,0.186c-0.189,0-0.518-0.077-1.008-0.444  c-0.809-0.607-1.37-0.866-1.875-0.866c-0.141,0-0.258,0.02-0.371,0.041c-0.047,0.009-0.091,0.02-0.14,0.02  c-0.014,0-0.046,0-0.114-0.031c-0.081-0.037-0.142-0.159-0.243-0.372c-0.239-0.503-0.601-1.264-2.005-1.597  c-0.618-0.147-1.181-0.173-1.608-0.153l-0.21,0.007c-0.2,0-0.406,0-1.118-0.545c-0.582-0.446-0.696-0.625-0.712-0.626  c0.03-0.042,0.121-0.124,0.182-0.179c0.082-0.073,0.167-0.15,0.247-0.237c0.333-0.354,0.661-1.002,0.584-1.754  c-0.05-0.496-0.303-1.223-1.219-1.871c-0.911-0.643-1.924-0.47-2.791-0.167c-0.522,0.184-1.002,0.356-1.583,0.268  c-1.015-0.153-1.809-0.248-2.633-0.248c-0.773,0-1.514,0.089-2.263,0.272c-0.25,0.062-0.638,0.201-1.109,0.372  c-1.124,0.409-2.822,1.027-4.134,1.027c-0.382,0-0.707-0.053-0.966-0.158c-0.282-0.114-0.523-0.217-0.733-0.306  c-0.643-0.272-0.997-0.422-1.347-0.422c-0.548,0-0.847,0.371-1.129,0.784c-0.466,0.681-1.186,1.611-2.053,1.829  c-1.934,0.485-2.454,1.638-2.854,2.878c-0.107,0.332-0.15,0.647-0.188,0.925c-0.109,0.803-0.175,1.288-1.695,1.785  c-2.067,0.675-2.484,1.176-3.043,2.004c-0.088,0.13-0.182,0.27-0.296,0.422c-0.242,0.324-0.532,0.589-0.838,0.871  c-0.555,0.508-1.183,1.084-1.571,2.092c-0.199,0.519-0.639,0.93-1.148,1.406c-0.707,0.661-1.507,1.409-1.851,2.656  c-0.414,1.501-0.203,2.237-0.016,2.887c0.075,0.259,0.139,0.483,0.155,0.746c0.055,0.895-0.125,1.677-0.603,2.618  c-0.223,0.44-0.283,0.812-0.331,1.11c-0.071,0.447-0.114,0.716-0.655,1.172c-0.885,0.747-0.842,2.165,0.12,3.892  c0.56,1.004,1.51,2.084,2.348,3.037c0.547,0.622,1.296,1.474,1.354,1.692c-0.013,0.588,0.096,2.574,2.062,3.452  c1.231,0.55,1.656,1.117,2.193,1.834c0.108,0.145,0.219,0.292,0.338,0.442c0.514,0.648,1.492,1.34,2.697,1.34  c0.658,0,1.288-0.208,1.872-0.616c0.528-0.37,1.19-0.557,1.966-0.557c1.032,0,1.947,0.328,2.292,0.47  c0.385,0.157,0.85,0.318,1.377,0.318c0.709,0,1.432-0.277,2.416-0.926c1.279-0.844,2.95-1.172,4.669-0.922  c0.5,0.072,0.776,0.497,1.172,1.188c0.419,0.733,0.951,1.67,2.142,1.466c0.411-0.072,0.774-0.146,1.096-0.213  c0.759-0.156,1.33-0.25,1.476-0.142c0.144,0.105,0.244,0.237,0.371,0.404c0.195,0.256,0.437,0.574,0.901,0.855  c0.274,0.166,0.16,1.589-0.102,2.066c-0.128,0.234-0.207,0.607-0.324,1.195c-0.101,0.505-0.31,1.555-0.524,1.725  c-0.167,0.126-0.27,0.313-0.29,0.525c-0.062,0.651,0.655,1.495,1.841,2.809c0.3,0.332,0.577,0.638,0.764,0.874  c0.793,1.004,2.739,4.146,3.212,5.639c0.187,0.588,0.161,0.865,0.131,1.186c-0.058,0.629-0.051,1.177,0.564,2.499  c0.428,0.921,0.03,1.426-0.711,2.239c-0.573,0.629-1.223,1.342-1.163,2.391c0.033,0.58-0.164,0.954-0.392,1.387  c-0.433,0.822-0.924,1.754,0.201,3.838c0.713,1.321,1.363,2.326,1.886,3.134c0.621,0.96,1.07,1.653,1.19,2.218  c0.091,0.429,0.06,0.692,0.027,0.972c-0.05,0.424-0.103,0.861,0.266,1.588c0.231,0.456,0.27,1.008,0.308,1.541  c0.041,0.578,0.079,1.125,0.345,1.59c0.458,0.802,0.642,1.008,0.903,1.277c0.816,0.84,1.346,2.014,1.494,2.75  c0.104,0.52,0.459,0.922,0.772,1.277c0.23,0.26,0.491,0.556,0.471,0.736c-0.015,0.133-0.051,0.277-0.086,0.431  c-0.162,0.684-0.433,1.828,0.833,2.738l0.187,0.137c0.372,0.277,0.757,0.564,1.314,0.564c0.354,0,0.722-0.114,1.16-0.358  c0.536-0.3,1.627-0.501,2.714-0.501c0.502,0,0.943,0.046,1.179,0.123c0.179,0.058,0.36,0.088,0.539,0.088  c0.529,0,0.927-0.25,1.218-0.432c0.088-0.056,0.209-0.131,0.292-0.143l0.271,0.004c0.753,0,1.964-0.215,3.795-2.08  c0.717-0.729,1.325-1.358,1.844-1.896c1.111-1.148,1.845-1.907,2.289-2.244c0.864-0.654,1.473-2.632,1.448-3.373  c-0.01-0.286-0.022-0.678,2.198-1.516c1.221-0.461,1.25-1.396,1.275-2.222c0.005-0.166,0.011-0.339,0.024-0.52  c0.039-0.486-0.119-1.107-0.286-1.766c-0.153-0.606-0.44-1.734-0.203-1.932L72.9,77.86c0.814-0.686,3.295-2.773,4.048-3.029  c0.604-0.206,3.623-1.338,3.651-3.383l0.009-0.568c0.056-3.309,0.031-5.205-0.252-5.752c-0.084-0.162-0.208-0.341-0.35-0.539  c-0.388-0.546-0.827-1.165-0.723-2.069c0.169-1.463,0.135-1.954-0.425-2.627c-0.17-0.233,0.098-1.45,0.434-1.975  c0.349-0.547,3.438-5.012,4.372-6.086c0.22-0.254,0.774-0.753,1.417-1.332c2.197-1.978,5.517-4.967,6.165-7.278  c0.371-1.324,0.914-2.5,1.392-3.538c0.569-1.234,1.019-2.208,0.938-2.963c-0.035-0.328,0.018-0.66,0.064-0.954  C93.713,35.319,93.78,34.896,93.501,34.569z M83.058,37.007c0.545,0.499,1.392,0.871,2.162,0.871c0.001,0,0.002,0,0.003,0  c0.619-0.022,1.155-0.334,1.674-0.635c0.574-0.333,1.167-0.677,1.979-0.677c0.005,0,0.098,0.001,0.104,0.001  c1.038,0,1.748-0.404,2.374-0.761c0.026-0.015,0.05-0.025,0.076-0.041c-0.511,1.117-1.452,2.978-2.324,4.433  c-0.196,0.02-0.891,0.028-2.852-0.468c-1.902-0.481-2.201-0.939-2.519-1.424c-0.105-0.162-0.215-0.33-0.378-0.504  C83.026,37.446,82.958,37.238,83.058,37.007z M82.724,35.257c-0.257,0.293-0.31,0.674-0.165,1.056l-0.955,0.254  c-0.021-0.187-0.028-0.461,0.045-0.752c0.109-0.432,0.236-0.681,0.822-1.009C82.632,34.991,82.74,35.155,82.724,35.257z   M77.212,30.263c0.245,1.294,1.552,1.969,2.603,2.512c0.438,0.226,0.852,0.44,1.113,0.655l0.287,0.235  c0.206,0.167,0.575,0.469,0.898,0.772c-0.62,0.374-0.813,0.715-0.949,1.255c-0.165,0.651-0.005,1.23,0.002,1.254  c0.037,0.132,0.175,0.208,0.305,0.174l1.122-0.298c-0.161,0.37-0.113,0.772,0.4,1.321c0.133,0.142,0.227,0.285,0.325,0.436  c0.354,0.544,0.723,1.106,2.813,1.635c1.4,0.355,2.205,0.466,2.665,0.487c-0.287,0.453-0.559,0.845-0.795,1.125  c-0.266,0.316-0.508,0.619-0.733,0.901c-0.868,1.087-1.444,1.808-2.165,1.808c-0.013,0-0.029,0-0.043,0  c-0.835,0-1.692,0.569-2.319,0.986c-0.236,0.157-0.439,0.292-0.595,0.368c-0.416,0.203-0.656,0.096-1.093-0.1l-0.248-0.109  c-0.557-0.238-1.186,0.396-1.64,0.858c-0.111,0.113-0.264,0.269-0.297,0.29c-0.016,0.005-0.057-0.012-0.124-0.041  c-0.183-0.077-0.463-0.194-1.014-0.173c-0.016,0.001-0.031,0.001-0.046,0.001c-0.53,0-1.184-0.329-1.816-0.648  c-0.28-0.142-0.559-0.282-0.828-0.396c-0.163-0.069-0.318-0.113-0.473-0.154c0.089-0.371,0.07-0.667-0.069-0.876  c-0.086-0.128-0.258-0.286-0.592-0.307c-0.24-0.015-0.366-0.27-0.53-0.656c-0.113-0.265-0.22-0.515-0.415-0.667  c-0.092-0.071-0.228-0.268-0.358-0.458c-0.342-0.498-0.768-1.116-1.381-1.116c-0.009,0-0.018,0-0.026,0  c-0.227,0.005-0.292-0.039-0.302-0.054c-0.012-0.019-0.02-0.119,0.092-0.328c0.032-0.061,0.096-0.079,0.299-0.111  c0.162-0.025,0.364-0.058,0.563-0.172c0.368-0.211,0.397-0.886,0.431-1.667c0.014-0.325,0.027-0.631,0.066-0.854  c0.044-0.25,0.142-0.35,0.275-0.487c0.179-0.183,0.401-0.411,0.45-0.972c0.052-0.592,0.438-1.034,0.928-1.592  c0.154-0.176,0.318-0.363,0.482-0.567c0.519-0.643,0.483-1.604,0.45-2.533c-0.018-0.479-0.035-0.976,0.021-1.422  c0.129-1.029,0.845-1.746,1.542-2.213C76.849,28.791,77.023,29.266,77.212,30.263z M69.311,53.033  c-0.016-0.063-0.052-0.117-0.103-0.152c-0.017-0.018-0.022-0.042-0.04-0.059c-0.063-0.06-0.066-0.104-0.062-0.145  c0.019-0.135,0.176-0.297,0.276-0.349c0.17-0.089,0.229-0.129,0.29-0.169c0.089-0.059,0.189-0.125,0.869-0.452  c0.265-0.127,0.449-0.191,0.55-0.191c0.04,0,0.052,0.005,0.139,0.08c0.116,0.1,0.292,0.252,0.657,0.319  c0.364,0.067,0.585,0.206,0.66,0.286c-0.023,0.011-0.06,0.024-0.113,0.038c-0.43,0.108-0.65,0.304-0.805,0.588  c-0.001,0.001-0.003,0.001-0.004,0.003s0,0.003-0.001,0.005c-0.107,0.201-0.183,0.444-0.271,0.738l-0.076,0.251  c-0.11,0.359-0.134,0.687-0.151,0.925c-0.007,0.087-0.014,0.188-0.024,0.255c-0.005-0.002-0.011-0.004-0.017-0.006  c-0.714-0.272-1.175-0.254-1.715,0.103c-0.097-0.082-0.187-0.521-0.084-0.706C69.511,53.99,69.557,53.439,69.311,53.033z   M71.843,51.379c-0.125-0.045-0.214-0.099-0.286-0.161c-0.186-0.162-0.441-0.34-1.231,0.039c-0.711,0.343-0.816,0.412-0.929,0.486  c-0.052,0.034-0.102,0.067-0.246,0.143c-0.19,0.1-0.491,0.375-0.539,0.725c-0.011,0.078,0.008,0.152,0.024,0.226  c-0.163-0.007-0.31-0.016-0.432-0.024c-0.409-0.03-0.706-0.039-0.961,0.171c-0.005,0.003-0.01,0-0.014,0.003  c-0.012,0.008-0.012,0.023-0.021,0.033c-0.049,0.045-0.099,0.083-0.146,0.148c-0.141,0.199-0.238,0.293-0.317,0.304  c-0.052,0.007-0.144-0.018-0.302-0.128c0.012-0.115,0.022-0.239,0.033-0.397c0.031-0.435,0.073-1.029,0.201-1.628  c0.13-0.608,0.663-1.099,1.092-1.494c0.271-0.25,0.506-0.467,0.616-0.687c0.185-0.369-0.018-0.687-0.195-0.967  c-0.145-0.228-0.286-0.467-0.296-0.77c0.137-0.054,0.258-0.12,0.364-0.188c0.17-0.108,0.305-0.193,0.497-0.193  c0.224,0,0.335,0.058,0.466,0.125c0.127,0.066,0.272,0.141,0.487,0.141c0.19,0,0.398-0.082,0.64-0.176  c0.293-0.115,0.625-0.246,0.97-0.246c0.302,0,0.497-0.146,0.65-0.324c0.079,0.138,0.171,0.285,0.271,0.444  c0.365,0.582,0.818,1.305,0.758,1.89c-0.05,0.478-0.313,0.916-0.592,1.379C72.191,50.607,71.977,50.976,71.843,51.379z   M71.098,64.465c0.086,0,0.166-0.003,0.238-0.008c-0.022,0.498,0.022,1.017,0.337,1.395c0.241,0.288,0.158,0.724,0.104,1.012  c-0.015,0.072-0.063,0.192-0.116,0.32c-0.154,0.373-0.364,0.883-0.116,1.269c0.126,0.195,0.256,0.755,0.351,1.163  c0.091,0.388,0.149,0.632,0.216,0.766c0.142,0.284,0.511,0.34,0.78,0.34c0.079,0,0.145-0.005,0.198-0.011  c0.113,0.065,0.397,0.252,0.351,0.47c-0.048,0.219-0.019,0.47,0.01,0.712c0.019,0.158,0.054,0.452,0.002,0.513  c-0.359,0.065-0.553,0.434-0.709,0.729c-0.047,0.09-0.114,0.219-0.162,0.277c-0.153-0.061-0.468-0.278-0.591-0.567  c-0.075-0.178-0.06-0.348,0.05-0.518c0.33-0.517,0.379-1.146,0.12-1.565c-0.169-0.274-0.45-0.41-0.751-0.381  c-0.309,0.039-0.447-0.103-0.636-0.292c-0.085-0.087-0.174-0.177-0.284-0.25c-0.108-0.072-0.438-0.292-0.43-0.401  c0.454-0.328,0.807-1.278,0.874-1.971c0.042-0.434-0.138-0.639-0.257-0.773c-0.096-0.109-0.132-0.15-0.102-0.317  c0.01-0.054,0.01-0.054,0.095-0.093C71.083,66.088,71.267,65.73,71.098,64.465z M72.477,68.804c0.069,0.604,0.229,0.966,0.335,1.206  c0.042,0.095,0.067,0.157,0.083,0.209c-0.166-0.001-0.308-0.025-0.337-0.061c-0.044-0.088-0.114-0.39-0.176-0.655  c-0.12-0.519-0.244-1.054-0.418-1.322c-0.106-0.165,0.047-0.536,0.158-0.807c0.065-0.158,0.122-0.295,0.145-0.417  c0.064-0.334,0.183-0.955-0.209-1.426c-0.2-0.241-0.239-0.613-0.228-0.991l0.072,0.088c0.303,0.365,0.615,0.743,0.588,2.012  c-0.004,0.18,0.078,0.279,0.146,0.33c0.062,0.046,0.132,0.063,0.206,0.069c-0.01,0.021-0.018,0.039-0.028,0.061  C72.622,67.496,72.382,67.989,72.477,68.804z M70.457,65.829c-0.119,0.056-0.318,0.148-0.375,0.457  c-0.072,0.404,0.096,0.596,0.218,0.735c0.098,0.111,0.156,0.178,0.135,0.396c-0.061,0.625-0.386,1.409-0.669,1.613  c-0.2,0.145-0.239,0.312-0.237,0.427c0.004,0.188,0.122,0.348,0.272,0.487c-0.742,0.217-2.148,0.637-2.793,0.89  c-0.365,0.144-0.594,0.269-0.679,0.48c-0.08,0.202,0.006,0.385,0.097,0.577c0.011,0.022,0.023,0.061,0.035,0.086  c-1.071,0.093-1.702,0.422-1.825,1.006c-0.042,0.204-0.358,0.407-0.725,0.643c-0.4,0.258-0.898,0.579-1.288,1.065  c-0.485,0.606-0.751,0.571-1.547,0.469c-0.153-0.02-0.327-0.04-0.515-0.059c-0.275-0.415-0.588-0.769-0.973-0.775  c-0.129-0.002-0.237-0.04-0.376-0.089c-0.335-0.118-0.764-0.246-1.621,0.055c-0.154-0.167-0.323-0.342-0.492-0.513  c-0.273-0.277-0.648-0.657-0.688-0.729V69.27h1.104c0.743,0,1.537-0.369,1.537-1.406v-1.26c0.005,0.001,0.013,0.001,0.018,0.002  c0.123,0.031,0.289,0.142,0.48,0.27c0.357,0.239,0.848,0.566,1.548,0.702c0.817,0.16,1.195-0.01,1.473-0.134  c0.092-0.041,0.164-0.073,0.197-0.088c0.033,0.02,0.102,0.124,0.152,0.201c0.193,0.292,0.484,0.733,1.157,0.79  c0.295,0.025,0.406,0.239,0.554,0.589c0.106,0.253,0.273,0.649,0.669,0.649c0.077,0,0.162-0.015,0.258-0.049  c0.165-0.06,0.265-0.03,0.37-0.001c0.112,0.031,0.407,0.114,0.545-0.237c0.095-0.244,0.067-0.632,0.039-1.043  c-0.012-0.16-0.022-0.313-0.022-0.438c0-0.182-0.093-0.272-0.148-0.31c-0.169-0.117-0.363-0.039-0.57,0.042  c-0.257,0.102-0.463,0.17-0.573,0.06c-0.253-0.253-0.204-0.859-0.168-1.303c0.012-0.15,0.022-0.286,0.022-0.396  c0-0.695-0.025-1.474-0.319-1.895c-0.003-0.021,0.019-0.115,0.151-0.266c0.403-0.457,1.386-0.949,2.59-0.949  c0.046,0,0.133,0.109,0.203,0.197c0.093,0.117,0.213,0.256,0.374,0.36c0.009,0.008,0.019,0.012,0.028,0.018  c0.1,0.06,0.21,0.109,0.35,0.126c0.359,0.042,0.802,0.267,1.314,0.527c0.17,0.086,0.346,0.175,0.528,0.263  c0.107,0.051,0.212,0.088,0.313,0.114C70.769,65.668,70.576,65.773,70.457,65.829z M69.38,77.278  c0.097,0.18,0.123,0.412,0.067,0.593c-0.022,0.074-0.07,0.174-0.166,0.224c-0.361,0.188-0.58,0.525-0.633,0.974  c-0.02,0.166-0.235,0.44-0.641,0.814c-0.324,0.3-0.646,0.671-0.78,0.831c-0.587,0.052-0.95-0.059-1.264-0.164  c-0.21-0.069-0.418-0.12-0.65-0.123c-0.295-0.354-0.667-0.547-1.001-0.711c-0.381-0.188-0.683-0.336-0.813-0.677  c-0.089-0.231-0.035-0.357,0.021-0.491c0.049-0.114,0.116-0.27,0.036-0.442c-0.087-0.187-0.294-0.304-0.821-0.466  c-0.855-0.263-1.111-0.767-1.316-1.172c-0.079-0.157-0.155-0.306-0.257-0.421c-0.068-0.078-0.164-0.235-0.266-0.405  c0.037,0.005,0.08,0.01,0.115,0.015c0.833,0.109,1.339,0.176,2.002-0.652c0.338-0.423,0.779-0.707,1.169-0.957  c0.46-0.297,0.857-0.552,0.943-0.96c0.072-0.345,0.593-0.57,1.442-0.632v0.424c0,0.069,0.028,0.135,0.079,0.182  c0.05,0.048,0.119,0.07,0.186,0.068l0.935-0.057c0.229,0.181,0.87,0.651,1.38,0.682c0.148,0.008,0.315,0.126,0.436,0.308  c0.179,0.268,0.226,0.601,0.124,0.892C69.385,75.879,69.123,76.802,69.38,77.278z M53.662,84.014v-3.229h1.031  c0.138,0,0.25-0.112,0.25-0.25V75.94l2.618-0.362l0.448,0.343c0.097,0.074,0.23,0.064,0.32-0.014  c0.005-0.004,0.494-0.417,1.816-0.342c0.045,0.003,0.082,0.008,0.125,0.011c0.058,0.093,0.111,0.182,0.155,0.256  c0.135,0.226,0.251,0.421,0.36,0.545c0.06,0.068,0.118,0.184,0.187,0.317c0.222,0.438,0.557,1.099,1.615,1.424  c0.31,0.095,0.438,0.156,0.491,0.188c-0.006,0.015-0.013,0.031-0.019,0.044c-0.071,0.167-0.191,0.446-0.029,0.868  c0.201,0.523,0.638,0.738,1.06,0.945c0.241,0.119,0.472,0.236,0.669,0.405c-0.094,0.071-0.147,0.153-0.189,0.219  c-0.066,0.104-0.11,0.173-0.435,0.185c-0.569,0.021-0.772,0.347-0.936,0.607c-0.13,0.207-0.241,0.386-0.539,0.483  c-0.503,0.164-0.727,0.581-0.906,0.916c-0.174,0.324-0.283,0.509-0.507,0.543c-0.636,0.097-0.854,0.634-0.999,0.988  c-0.037,0.092-0.089,0.218-0.117,0.247c-0.103,0.096-0.498,0.09-0.991,0.083c-0.156-0.002-0.329-0.004-0.521-0.004  c-0.421,0-0.484-0.097-0.558-0.209c-0.076-0.116-0.203-0.312-0.548-0.312c-0.456,0-0.558,0.146-0.763,0.503  c-0.096,0.167-0.227,0.396-0.461,0.728c-0.552,0.777-1.545,0.714-1.923,0.625c0.015-0.033,0.031-0.069,0.046-0.1  c0.082-0.174,0.194-0.411,0.206-0.684C54.645,84.816,54.152,84.229,53.662,84.014z M67.475,62.301c-0.081,0-0.155,0.01-0.233,0.014  c-0.07-0.487-0.323-0.78-0.604-1.074c-0.21-0.221-0.427-0.449-0.605-0.807c-0.401-0.803-0.435-1.789-0.33-3.046  c0.448,0.524,0.741,1.293,0.768,1.856c0.03,0.654,0.069,0.737,0.359,1.083c0.072,0.086,0.163,0.194,0.28,0.349  c0.323,0.427,0.407,0.78,0.562,1.422c0.02,0.085,0.046,0.186,0.068,0.28C67.662,62.334,67.578,62.301,67.475,62.301z M66.425,57.527  c-0.185-0.312-0.412-0.589-0.672-0.801c0.044-0.551-0.009-0.847-0.103-1.056c0.08-0.017,0.141,0.005,0.225,0.043  c0.097,0.044,0.223,0.102,0.389,0.102c0.043,0,0.089-0.004,0.139-0.013c0.251-0.046,0.403-0.229,0.537-0.39  c0.087-0.105,0.152-0.181,0.223-0.226c0.021,0.156,0.122,0.3,0.223,0.44c0.09,0.125,0.182,0.255,0.228,0.393  C67.633,56.082,67.648,56.443,66.425,57.527z M67.556,54.67c-0.541-0.125-0.817,0.204-1.002,0.424  c-0.087,0.104-0.169,0.204-0.241,0.217c-0.081,0.017-0.128-0.004-0.229-0.052c-0.171-0.079-0.352-0.136-0.595-0.062  c0.005-0.087,0.02-0.193,0.063-0.361c0.167-0.655,0.36-0.744,0.503-0.809c0.078-0.036,0.169-0.1,0.244-0.196  c0.15,0.085,0.293,0.142,0.426,0.142c0.03,0,0.061-0.002,0.091-0.007c0.22-0.03,0.386-0.171,0.527-0.342  c0.349,0.583,0.359,0.85,0.332,0.935C67.662,54.595,67.634,54.635,67.556,54.67z M71.782,45.95  c-0.181,0.288-0.279,0.414-0.464,0.414c-0.439,0-0.835,0.155-1.152,0.28c-0.178,0.07-0.361,0.142-0.457,0.142  c-0.09,0-0.147-0.027-0.259-0.085c-0.147-0.076-0.35-0.181-0.694-0.181c-0.337,0-0.563,0.144-0.765,0.27  c-0.159,0.101-0.298,0.188-0.484,0.199c-0.003,0-0.005,0-0.007,0c-0.146,0-0.316-0.278-0.469-0.523  c-0.171-0.276-0.347-0.563-0.607-0.733c-0.298-0.197-0.797-0.138-1.324-0.078c-0.405,0.047-1.016,0.118-1.113-0.045  c-0.159-0.265-0.414-0.402-0.688-0.482l-0.097-0.74c-0.082-0.626-0.721-1.085-1.396-1.572c-0.478-0.344-0.972-0.7-1.324-1.136  c-0.513-0.634-0.911-0.844-1.263-1.028c-0.263-0.138-0.489-0.258-0.739-0.558c-0.158-0.19-0.173-0.525-0.039-0.92  c0.244-0.721,0.879-1.386,1.444-1.514c0.299-0.067,0.301-0.053,0.402,0.142c0.171,0.33,0.458,0.883,1.962,1.117  c1.83,0.285,2.544-0.19,3.117-0.572c0.202-0.135,0.377-0.251,0.577-0.311c0.352-0.105,0.508,0.008,0.746,0.18  c0.204,0.147,0.458,0.331,0.848,0.331c0.761,0,1.394-0.552,1.935-1.688c0.231-0.486,0.179-0.944,0.137-1.312  c-0.056-0.49-0.037-0.539,0.224-0.586c0.278-0.05,0.463-0.04,0.55,0.03c0.149,0.119,0.179,0.534,0.197,0.984  c0.044,1.035,0.313,1.521,1.257,2.247c-0.028,0.228-0.044,0.485-0.056,0.765c-0.018,0.401-0.05,1.148-0.18,1.254  c-0.12,0.068-0.253,0.089-0.394,0.112c-0.226,0.036-0.507,0.08-0.662,0.37c-0.181,0.339-0.206,0.617-0.075,0.827  c0.12,0.193,0.352,0.291,0.688,0.291c0.02,0,0.046-0.002,0.063-0.001c0.353,0,0.695,0.498,0.972,0.899  c0.166,0.242,0.31,0.451,0.463,0.569c0.093,0.072,0.179,0.273,0.262,0.468c0.166,0.39,0.394,0.924,0.959,0.959  c0.156,0.01,0.194,0.066,0.207,0.085c0.059,0.087,0.042,0.278-0.013,0.502c-0.406-0.049-0.776-0.037-1.098-0.019  c-0.119,0.007-0.235,0.014-0.348,0.016C72.176,45.328,71.958,45.672,71.782,45.95z M51.744,46.733  c0.001,0.069,0.001,0.16,0.002,0.243c-0.14,0.013-0.396-0.011-0.599-0.032c-0.629-0.063-1.408-0.14-1.966,0.226  c-0.273,0.179-0.432,0.399-0.54,0.625c-0.63-0.481-1.641-1.451-1.762-2.782c-0.121-1.333,0.453-2.298,1.575-2.646  c0.504-0.156,1.026-0.202,1.531-0.246c0.794-0.069,1.544-0.134,2.164-0.606c0.204-0.156,0.401-0.313,0.597-0.469  c0.708-0.564,1.376-1.097,2.326-1.5c0.581-0.247,0.949-0.732,1.245-1.122c0.193-0.254,0.394-0.518,0.533-0.524  c0.057-0.02,0.163,0.059,0.276,0.173c0.117,0.356,0.533,0.718,0.839,0.945c-0.191,0.569-0.146,1.065,0.129,1.396  c0.314,0.376,0.607,0.531,0.892,0.68c0.324,0.17,0.658,0.346,1.106,0.9c0.395,0.488,0.939,0.881,1.421,1.227  c0.586,0.422,1.139,0.82,1.192,1.231l0.076,0.581c-0.15-0.01-0.293-0.012-0.417-0.012c-0.011,0-0.022,0-0.034,0  c-0.07,0.001-0.136,0-0.19-0.002c-0.089-0.003-0.268-0.076-0.425-0.14c-0.412-0.167-0.976-0.398-1.311,0.014  c-0.144,0.178-0.178,0.179-0.401,0.185c-0.129,0.003-0.307,0.008-0.546,0.055c-0.327,0.064-0.535,0.224-0.702,0.352  c-0.2,0.153-0.293,0.224-0.526,0.142c-0.688-0.239-1.027,0.081-1.359,0.391l-0.155,0.142c-0.141,0.125-0.141,0.125-0.366,0.074  c-0.209-0.048-0.524-0.121-1.093-0.121c-0.635,0-0.981-0.358-1.287-0.674c-0.24-0.248-0.467-0.482-0.791-0.482  c-0.694,0-1.438,0.899-1.438,1.531L51.744,46.733z M47.77,38.58c-0.003-0.009-0.338-0.878-0.529-1.877  c-0.006-0.03-0.032-0.046-0.047-0.071c0.011-0.029,0.03-0.052,0.04-0.083c0.29-0.903,0.431-1.713-0.782-2.475l-0.298-0.185  c-0.349-0.213-0.624-0.382-0.648-0.507c-0.029-0.144,0.191-0.468,0.36-0.699c0.239-0.329,0.513-0.633,0.777-0.928  c0.573-0.638,1.114-1.241,1.296-2.038c0.104-0.455,0.115-1.105,0.127-1.795c0.015-0.838,0.035-1.985,0.301-2.235  c0.39-0.368,0.076-0.703-0.132-0.924c-0.353-0.376-0.875-0.947-0.599-2.405c0.409-0.23,0.792-0.503,0.991-0.651  c1.003,0.521,7.084,3.672,9.579,4.892v4.863c0,0.107-0.236,0.303-0.542,0.395c-0.748,0.226-0.881,0.958-0.999,1.604  c-0.094,0.521-0.184,1.013-0.548,1.235c-0.232,0.143-0.295,0.315-0.307,0.436c-0.032,0.333,0.273,0.612,0.542,0.858  c0.105,0.096,0.225,0.205,0.266,0.271c0.325,0.519,0.506,0.963,0.545,1.218c-0.106-0.052-0.214-0.082-0.336-0.077  c-0.372,0.019-0.619,0.344-0.906,0.722c-0.273,0.36-0.584,0.769-1.042,0.964c-1.013,0.43-1.739,1.009-2.442,1.569  c-0.192,0.154-0.387,0.309-0.588,0.462c-0.506,0.384-1.154,0.441-1.905,0.506c-0.531,0.046-1.08,0.094-1.635,0.266  c-0.099,0.03-0.187,0.074-0.278,0.112c-0.047-0.603-0.609-1.168-1.116-1.671c-0.339-0.336-0.76-0.755-0.75-0.973  c0.014-0.333,0.881-0.453,1.369-0.438c0.064,0.008,0.163-0.038,0.211-0.106C47.79,38.745,47.8,38.657,47.77,38.58z M40.302,37.561  c-0.188-0.222-0.364-0.432-0.46-0.626c-0.129-0.261-0.12-0.612,0.024-0.964c0.137-0.333,0.378-0.616,0.587-0.688  c0.188-0.065,0.393-0.179,0.61-0.298c0.423-0.233,0.905-0.498,1.229-0.388c0.205,0.068,0.333,0.166,0.468,0.269  c0.229,0.175,0.489,0.372,1.025,0.29c0.499-0.079,1.241-0.478,1.702-0.749c-0.054,1.561,0.315,2.088,1.074,2.347  c-0.188,0.247-0.459,0.441-0.747,0.639c-0.247,0.17-0.501,0.346-0.709,0.566c-0.274,0.29-0.411,0.777-0.555,1.292  c-0.152,0.54-0.324,1.152-0.639,1.314c-0.52,0.267-0.933,1.108-1.296,1.851c-0.133,0.271-0.31,0.632-0.413,0.761  c-0.026-0.029-0.056-0.068-0.079-0.098c-0.08-0.103-0.202-0.248-0.369-0.34c-0.103-0.263-0.213-0.5-0.317-0.72  c-0.328-0.689-0.564-1.188-0.324-2.093C41.395,38.857,40.789,38.139,40.302,37.561z M23.989,38.5  c-0.458-0.254-0.769-0.23-1.177-0.17c-0.142,0.021-0.298,0.044-0.489,0.049c-0.292,0.007-0.367-0.126-0.532-0.382  c-0.117-0.181-0.266-0.414-0.535-0.493c0.043-0.313,0.13-0.864,0.272-1.371c0.083-0.296,0.254-0.401,0.514-0.561  c0.285-0.175,0.64-0.393,0.906-0.926c0.185-0.371,0.257-0.38,0.449-0.407c0.241-0.033,0.572-0.079,1.097-0.549  c1.028-0.918,2.274-1.444,3.098-1.63c0.155-0.035,0.309-0.04,0.462-0.034c-0.188,0.76,0.469,1.462,0.885,1.905  c0.12,0.127,0.28,0.298,0.325,0.379c-0.047,0.163-0.106,0.425,0.037,0.645c0.12,0.184,0.344,0.292,0.704,0.338l0.218,0.025  c0.39,0.042,0.416,0.061,0.443,0.438c-0.034,0.051-0.068,0.1-0.1,0.16c-0.159,0.302-0.404,0.442-0.715,0.62  c-0.21,0.12-0.449,0.257-0.694,0.463c-0.073,0.062-0.115,0.136-0.158,0.21c-0.243-0.165-0.583-0.359-0.907-0.376  c-0.179-0.012-0.415,0.024-0.686,0.063c-0.491,0.07-1.101,0.157-1.646,0.03c-0.662-0.154-1.092-0.121-1.396,0.11  c-0.255,0.193-0.389,0.505-0.41,0.955C23.946,38.15,23.966,38.324,23.989,38.5z M13.711,33.252  c-0.093-0.125-0.248-0.334-0.239-0.399c0.096-0.215,0.104-0.589,0.01-1.011c0.19-0.18,0.292-0.412,0.372-0.608  c0.146-0.357,0.213-0.435,0.434-0.419c0.256,0.021,0.352,0.09,0.484,0.185c0.255,0.183,0.497,0.323,1.15,0.295l0.72-0.029  c0.32-0.013,0.326-0.013,0.52-0.013c0.226,0,2.886,0.109,4.261,0.167c0.13,0.012,0.222-0.072,0.251-0.185l0.291-1.083  c0.025-0.094-0.006-0.194-0.08-0.256l-0.305-0.257l0.202-10.652h1.679c1.546,1.329,3.097,2.63,3.728,3.058  c0.87,0.588,2.17,1.83,3.119,2.735c0.606,0.579,1.084,1.035,1.332,1.216c0.139,0.102,0.244,0.231,0.355,0.37  c0.272,0.339,0.574,0.714,1.395,0.714c0.044,0,0.096-0.006,0.143-0.008c-0.011,0.321,0.008,0.693,0.041,1.104  c0.068,0.843,0.152,1.892-0.169,2.298c-0.309,0.391-1.133,0.565-1.86,0.719c-0.525,0.111-1.021,0.217-1.397,0.398  c-0.426,0.206-0.84,0.126-1.318,0.036c-0.424-0.081-0.862-0.165-1.347-0.054c-0.884,0.2-2.221,0.763-3.32,1.745  c-0.412,0.369-0.636,0.4-0.833,0.427c-0.317,0.044-0.546,0.115-0.828,0.679c-0.203,0.405-0.454,0.56-0.721,0.724  c-0.28,0.172-0.598,0.368-0.734,0.852c-0.156,0.559-0.249,1.153-0.291,1.472c-0.068-0.02-0.127-0.052-0.194-0.103  c-0.233-0.171-0.483-0.304-1.008-0.048c-0.674,0.328-0.735,0.319-1.254,0.254c-0.094-0.012-0.186-0.002-0.275,0.018  c-0.551-1.9-1.021-2.908-1.396-2.975c-0.27-0.051-0.493,0.087-0.731,0.231c-0.309,0.186-0.693,0.417-1.366,0.417  c-0.003,0-0.006,0-0.009,0c-0.444-0.001-0.538-0.096-0.552-0.115c-0.051-0.068,0.011-0.282,0.062-0.455  c0.039-0.135,0.078-0.274,0.096-0.408C14.183,33.888,13.921,33.536,13.711,33.252z M30.276,34.821l-0.207-0.024  c-0.291-0.038-0.344-0.107-0.349-0.115c-0.021-0.031-0.008-0.124,0.036-0.274c0.076-0.257-0.134-0.48-0.453-0.819  c-0.505-0.538-0.904-1.027-0.741-1.502c0.058,0.011,0.114,0.021,0.172,0.032c0.519,0.098,1.054,0.2,1.63-0.077  c0.322-0.155,0.789-0.254,1.283-0.359c0.849-0.18,1.727-0.366,2.147-0.898c0.444-0.561,0.359-1.622,0.276-2.649  c-0.034-0.425-0.063-0.823-0.047-1.12c0.036-0.006,0.066-0.008,0.103-0.016c1.589-0.311,2.424-0.875,3.392-1.528l0.324-0.218  c1.07-0.713,4.431-2.808,6.117-3.588c0.372,0,0.853,0.293,1.294,0.553c0.468,0.275,0.91,0.536,1.283,0.536  c0.16,0,0.351-0.052,0.553-0.132c-0.169,1.454,0.435,2.115,0.778,2.481c0.071,0.076,0.169,0.18,0.153,0.219  c-0.418,0.395-0.437,1.461-0.457,2.59c-0.011,0.633-0.023,1.289-0.115,1.692c-0.153,0.671-0.652,1.227-1.181,1.816  c-0.273,0.304-0.555,0.618-0.809,0.968c-0.33,0.453-0.508,0.777-0.446,1.091c0.035,0.178,0.139,0.313,0.299,0.447  c-0.463,0.277-1.184,0.667-1.605,0.734c-0.326,0.053-0.438-0.035-0.644-0.192c-0.146-0.112-0.329-0.252-0.613-0.347  c-0.535-0.178-1.116,0.142-1.628,0.425c-0.182,0.101-0.351,0.191-0.492,0.246c-0.609-0.026-0.801-0.156-0.994-0.296  c-0.187-0.135-0.398-0.287-0.883-0.304c-0.583-0.017-0.905,0.187-1.142,0.338c-0.179,0.114-0.251,0.15-0.351,0.132  c-0.048-0.009-0.143-0.154-0.212-0.26c-0.256-0.392-0.682-1.05-1.952-0.928c-0.798,0.075-1.518,0.481-2.027,1.142  c-0.237,0.307-0.402,0.647-0.497,0.973c-0.375-0.261-0.694-0.363-0.98-0.309c-0.067,0.013-0.13,0.036-0.191,0.064  C30.982,34.947,30.732,34.87,30.276,34.821z M33.163,34.92c0.246-0.318,0.791-0.866,1.679-0.949  c0.971-0.096,1.243,0.331,1.487,0.704c0.138,0.21,0.28,0.428,0.536,0.478c0.307,0.062,0.523-0.079,0.715-0.202  c0.211-0.135,0.443-0.272,0.855-0.259c0.333,0.011,0.449,0.095,0.608,0.209c0.155,0.112,0.349,0.238,0.702,0.318  c-0.134,0.159-0.253,0.347-0.341,0.562c-0.199,0.485-0.203,0.987-0.01,1.376c0.124,0.249,0.319,0.481,0.526,0.727  c0.076,0.09,0.152,0.182,0.226,0.275c-0.23-0.064-0.47-0.189-0.719-0.327c-0.394-0.217-0.789-0.427-1.239-0.432  c-0.824,0.021-1.13,0.318-1.638,0.809l-0.184,0.177c-0.511,0.486-1.685,0.536-2.563,0.112c-0.804-0.388-1.004-1.608-1.112-2.264  C32.645,35.956,32.773,35.426,33.163,34.92z M45.994,34.377l0.192,0.119c0.264,0.166,0.438,0.327,0.556,0.49  c-0.311,0.246-0.506,0.508-0.623,0.731C46.016,35.441,45.969,35.017,45.994,34.377z M46.468,36.169  c0.047-0.154,0.169-0.42,0.458-0.688c0.019,0.247-0.044,0.514-0.141,0.822C46.669,36.271,46.564,36.227,46.468,36.169z   M66.569,32.012c0.134,0.134,0.241,0.214,0.325,0.277c0.147,0.109,0.147,0.109-0.02,1.087c-0.205,1.196-0.535,3.386-0.645,4.124  c-0.128-0.005-0.268,0.008-0.432,0.057c-0.271,0.081-0.483,0.223-0.71,0.374c-0.506,0.336-1.086,0.708-2.582,0.515  c-0.056-0.424-0.174-1.634-0.012-3.516c0.134-1.562-0.035-2.037-0.184-2.457c-0.084-0.234-0.149-0.419-0.149-0.803v-2.625h2.125  h1.695l0.488,1.465C66.262,30.868,66.078,31.521,66.569,32.012z M64.037,28.543h-2.125c-0.138,0-0.25,0.112-0.25,0.25v2.875  c0,0.47,0.091,0.724,0.178,0.971c0.132,0.372,0.281,0.793,0.157,2.247c-0.151,1.751-0.067,2.926-0.005,3.474  c-0.95-0.206-1.132-0.539-1.262-0.789c-0.155-0.301-0.335-0.541-0.957-0.398c-0.673,0.152-1.254,0.747-1.596,1.374  c-0.323-0.258-0.586-0.538-0.588-0.635c0.265-0.481-0.23-1.407-0.55-1.916c-0.077-0.124-0.211-0.246-0.352-0.375  c-0.115-0.105-0.385-0.351-0.383-0.438c0,0,0.012-0.024,0.07-0.06c0.556-0.339,0.675-0.994,0.779-1.572  c0.122-0.67,0.227-1.087,0.651-1.215c0.446-0.134,0.897-0.457,0.897-0.873v-5.417h5.333V28.543z M72.8,21.956  c0.619,0.599,1.067,1.031,1.327,2.708c0.299,1.925,0.622,2.315,1.343,2.801c0.133,0.089,0.281,0.189,0.451,0.334  c0.081,0.069,0.151,0.133,0.222,0.198c-0.982,0.679-1.564,1.54-1.687,2.517c-0.062,0.487-0.042,1.004-0.024,1.503  c0.032,0.876,0.063,1.704-0.339,2.202c-0.16,0.199-0.319,0.38-0.47,0.552c-0.528,0.602-0.984,1.123-1.05,1.878  c-0.033,0.383-0.155,0.508-0.31,0.666c-0.095,0.097-0.2,0.214-0.285,0.382c-0.692-0.558-0.865-0.924-0.899-1.745  c-0.026-0.634-0.07-1.103-0.385-1.354c-0.214-0.171-0.509-0.212-0.952-0.131c-0.745,0.136-0.679,0.713-0.63,1.136  c0.036,0.32,0.078,0.683-0.092,1.04c-0.45,0.944-0.936,1.403-1.483,1.403c-0.229,0-0.372-0.104-0.555-0.236  c-0.08-0.058-0.17-0.117-0.268-0.171c0.099-0.661,0.442-2.949,0.652-4.178c0.195-1.135,0.22-1.28-0.174-1.573  c-0.07-0.052-0.16-0.118-0.271-0.229c-0.383-0.382,0.01-0.946,0.026-0.97c0.046-0.065,0.06-0.149,0.034-0.225l-0.584-1.75  c-0.034-0.102-0.13-0.171-0.237-0.171h-1.625v-2.75c0-0.138-0.112-0.25-0.25-0.25h-4.391l-0.134-2.11  c0.434,0.016,1.335,0.043,2.382,0.043c0.732,0,1.531-0.013,2.281-0.054c2.285-0.123,4.822-0.085,5.498-0.005  c0.54,0.057,1.009-0.381,1.616-0.941c0.285-0.264,0.612-0.545,0.965-0.811C72.605,21.767,72.704,21.863,72.8,21.956z M60.564,11.455  c2.183,0.584,3.182,0.585,4.452-0.07c0.776-0.402,1.703-0.136,2.127,0.134c0.484,0.308,1.136,0.117,1.61-0.096  c0.161-0.072,0.36-0.162,0.41-0.18c0.462,0.434,0.937,1.482,0.752,3.013c-0.018,0.144-0.051,0.209-0.07,0.211  c-0.116,0-0.3-0.069-0.434-0.121c-0.157-0.06-0.293-0.111-0.439-0.111c-0.188,0-0.407,0.127-0.493,0.293  c-0.187,0.362,0.028,0.692,0.734,1.681c1.006,1.408,1.47,2.41,1.843,3.215c0.313,0.677,0.584,1.261,1.059,1.818  c0.017,0.019,0.031,0.034,0.048,0.052c-0.353,0.27-0.679,0.55-0.962,0.813c-0.493,0.456-0.927,0.855-1.219,0.812  c-0.693-0.081-3.272-0.121-5.584,0.003c-1.834,0.099-3.975,0.034-4.665,0.009l-0.627-11.725  C59.554,11.247,60.033,11.313,60.564,11.455z M43.797,9.664c0.365,0.165,0.692,0.218,1.106,0.199  c0.251-0.011,0.535-0.061,1.331,0.127c0.938,0.223,1.129,0.626,1.333,1.054c0.147,0.311,0.315,0.663,0.732,0.853  c0.292,0.132,0.574,0.136,0.851,0.084c0.057-0.011,0.116-0.024,0.188-0.024c0.257,0,0.686,0.224,1.275,0.666  c1.141,0.855,2.253,0.821,2.806,0.032c0.32-0.457,0.391-1.095,0.183-1.666c-0.021-0.058-0.031-0.132,0.05-0.249  c0.169-0.24,0.643-0.496,1.189-0.496c0.219,0,0.534,0.043,0.797,0.247c0.758,0.59,1.585,0.623,2.542,0.66  c0.137,0.005,0.28,0.012,0.425,0.019l0.643,12.015c0,0.001,0.001,0.001,0.001,0.002l0.149,2.354h-0.942  c-0.138,0-0.25,0.112-0.25,0.25v0.247c-2.84-1.399-9.42-4.816-9.489-4.852c-0.085-0.045-0.192-0.036-0.269,0.024  c-0.518,0.402-1.494,1.041-1.909,1.041c-0.237,0-0.64-0.237-1.029-0.466c-0.539-0.318-1.075-0.65-1.605-0.627  c-0.22,0.012-0.294-0.146-0.469-0.525c-0.182-0.394-0.43-0.933-1.099-0.975c-0.476-0.03-0.881-0.232-1.11-0.557  c-0.24-0.339-0.286-0.804-0.133-1.345c0.67-2.37,0.453-3.074,0.202-3.89c-0.084-0.272-0.164-0.571-0.221-0.939  c0.177-0.052,0.446-0.131,0.784-0.228c0.446-0.127,0.546-0.649,0.635-1.11c0.049-0.253,0.123-0.635,0.24-0.668  C43.285,10.766,43.654,10.317,43.797,9.664z M40.271,5.586c0.031-0.556,0.088-0.98,0.253-1.27c0.547-0.161,1.011-0.195,1.51,0.157  c0.489,0.346,0.759,0.735,0.802,1.155c0.045,0.448-0.179,0.82-0.319,0.97c-0.061,0.065-0.126,0.123-0.187,0.178  c-0.221,0.2-0.524,0.473-0.507,0.913c0.017,0.431,0.335,0.845,1.098,1.43c0.152,0.117,0.28,0.199,0.41,0.284  c-0.08,0.553-0.328,0.923-0.736,1.04C42.18,10.56,42.084,11.058,42,11.497c-0.059,0.304-0.131,0.682-0.281,0.725  c-0.293,0.083-0.544,0.156-0.722,0.208c-0.114-0.719-0.53-2.542-1.91-3.625c-0.333-0.262-0.506-0.489-0.5-0.657  c0.009-0.225,0.351-0.452,0.681-0.672c0.342-0.228,0.695-0.463,0.834-0.792C40.226,6.388,40.248,5.999,40.271,5.586z M32.573,5.095  C33,4.939,33.351,4.81,33.578,4.755c1.419-0.347,2.65-0.289,4.51-0.007c0.696,0.104,1.289-0.054,1.809-0.229  c-0.083,0.335-0.105,0.702-0.125,1.039c-0.021,0.368-0.04,0.716-0.131,0.932c-0.08,0.19-0.37,0.383-0.65,0.57  c-0.435,0.29-0.884,0.589-0.903,1.069c-0.013,0.345,0.213,0.695,0.691,1.07c1.538,1.206,1.758,3.552,1.76,3.576  c0,0.001,0.001,0.001,0.001,0.002c0,0.001-0.001,0.002-0.001,0.003c0.059,0.529,0.174,0.904,0.276,1.235  c0.237,0.771,0.424,1.379-0.206,3.607c-0.247,0.874-0.024,1.444,0.207,1.77c0.317,0.448,0.859,0.728,1.487,0.767  c0.353,0.022,0.487,0.275,0.676,0.685c0.09,0.194,0.191,0.413,0.344,0.576c-1.797,0.905-4.761,2.751-5.758,3.417l-0.327,0.22  c-0.96,0.648-1.718,1.161-3.208,1.451c-1.106,0.217-1.345-0.08-1.647-0.457c-0.121-0.15-0.257-0.32-0.45-0.46  c-0.22-0.161-0.712-0.63-1.281-1.173c-1.016-0.969-2.28-2.176-3.184-2.788c-1.289-0.872-6.72-5.665-7.538-6.389  c0.001-0.094-0.021-0.2-0.084-0.301c-0.005-0.009-0.015-0.014-0.021-0.022c0.028-0.233,0.094-0.792,0.127-1.119  c0.041-0.407,1.201-0.643,1.969-0.799c0.439-0.089,0.854-0.174,1.127-0.286c0.497-0.204,1.152-0.536,1.729-0.83  c0.37-0.188,0.697-0.354,0.902-0.444c0.479-0.211,0.997-0.815,1.375-1.257c0.078-0.09,0.148-0.173,0.21-0.243  c0.087-0.097,0.454-0.061,0.722-0.034c0.458,0.045,0.977,0.096,1.277-0.235c0.318-0.35,0.145-0.758-0.009-1.118  c-0.137-0.322-0.279-0.655-0.202-1.043c0.137-0.682-0.042-1.038-0.33-1.365C30.067,6.005,31.546,5.469,32.573,5.095z M17.442,13.447  c2.116-0.691,2.254-1.706,2.375-2.601c0.035-0.26,0.068-0.505,0.148-0.752c0.356-1.103,0.698-1.853,2.146-2.216  c1.197-0.3,2.077-1.419,2.635-2.234c0.198-0.289,0.27-0.339,0.304-0.349c0.147,0,0.505,0.151,0.957,0.343  c0.214,0.09,0.46,0.195,0.748,0.312c0.37,0.15,0.813,0.226,1.312,0.229c0.013,0.013,0.028,0.03,0.04,0.042  c0.397,0.397,0.579,0.579,0.456,1.191c-0.108,0.54,0.081,0.981,0.232,1.336c0.154,0.36,0.188,0.488,0.099,0.586  c-0.131,0.145-0.518,0.106-0.859,0.074c-0.435-0.042-0.887-0.087-1.142,0.199c-0.065,0.072-0.138,0.157-0.218,0.251  c-0.327,0.382-0.821,0.959-1.196,1.124c-0.211,0.093-0.547,0.263-0.927,0.456c-0.569,0.289-1.214,0.617-1.692,0.813  c-0.229,0.094-0.622,0.174-1.038,0.259c-1.073,0.218-2.289,0.466-2.366,1.239c-0.024,0.238-0.066,0.6-0.098,0.868  c-0.166-0.05-0.361-0.084-0.603-0.093c-0.742-0.027-2.23-0.15-3.17-0.232C15.93,14.025,16.452,13.771,17.442,13.447z M10.917,20.023  c0.549-0.514,1.117-1.044,1.399-1.777c0.303-0.79,0.794-1.239,1.313-1.714c0.328-0.3,0.667-0.61,0.965-1.01  c0.124-0.166,0.227-0.318,0.323-0.46c0.075-0.11,0.145-0.21,0.217-0.307c0.848,0.076,2.717,0.238,3.603,0.271  c0.544,0.02,0.665,0.151,0.697,0.211c-0.004,0.009,0,0.019-0.003,0.029c-0.002,0.007-0.011,0.01-0.013,0.018l-0.331,1.471h-3.519  c-0.118,0-0.219,0.082-0.244,0.197l-0.632,2.92l-1.308,0.726c-0.073,0.041-0.122,0.116-0.128,0.2l-0.137,1.806l-3.768-0.399  C9.622,21.235,10.28,20.619,10.917,20.023z M9.329,24.559c-0.141-0.492-0.274-0.964-0.095-1.866l4.089,0.434  c0.009,0.001,0.018,0.001,0.026,0.001c0.058,0,0.115-0.021,0.16-0.058c0.052-0.043,0.084-0.105,0.089-0.173l0.146-1.928l1.289-0.716  c0.063-0.035,0.107-0.096,0.123-0.166l0.614-2.834h3.517c0.117,0,0.218-0.081,0.244-0.195l0.282-1.253  c0.557,0.492,1.766,1.556,3.067,2.682h-1.344c-0.136,0-0.248,0.109-0.25,0.245l-0.209,11.017c-0.001,0.076,0.031,0.147,0.089,0.196  l0.275,0.231l-0.198,0.736c-0.819-0.034-3.824-0.158-4.082-0.158c-0.202,0-0.208,0-0.54,0.014l-0.72,0.028  c-0.532,0.021-0.673-0.083-0.839-0.202c-0.152-0.109-0.34-0.244-0.733-0.277c-0.625-0.056-0.804,0.398-0.938,0.728  c-0.032,0.078-0.066,0.149-0.101,0.218c-0.198-0.454-0.512-0.91-0.983-1.254c-0.468-0.342-0.752-0.645-1.003-0.913  c-0.31-0.331-0.577-0.616-1.033-0.75c-0.477-0.142-0.875,0.023-1.259,0.181c-0.059,0.024-0.117,0.042-0.175,0.065  c0.534-1.07,0.747-2.022,0.683-3.072C9.498,25.148,9.412,24.849,9.329,24.559z M7.437,32.764c0.201,0.026,0.411,0.036,0.575,0  c0.235-0.051,0.404-0.152,0.554-0.243C8.818,32.367,9,32.256,9.504,32.428l0.191,0.063c0.494,0.164,1.321,0.437,1.359,0.773  c0.006,0.05-0.002,0.068-0.002,0.068c-0.087,0.093-0.635-0.01-0.841-0.047l-0.082-0.016c-0.147-0.027-0.29-0.075-0.425-0.119  c-0.367-0.12-0.783-0.257-1.132,0.059c-0.226,0.204-0.498,0.193-0.906,0.15C7.578,33.16,7.497,32.96,7.437,32.764z M7.927,33.885  c-0.001-0.002-0.002-0.005-0.004-0.007c0.038,0.001,0.074,0.008,0.111,0.008c0.3,0,0.604-0.062,0.874-0.307  c0.121-0.11,0.288-0.07,0.64,0.046c0.156,0.051,0.321,0.105,0.491,0.136l0.081,0.015c0.465,0.086,0.991,0.185,1.274-0.078  c0.088-0.082,0.188-0.234,0.158-0.49c-0.075-0.654-0.976-0.952-1.7-1.191l-0.188-0.063c-0.719-0.242-1.058-0.041-1.357,0.138  c-0.132,0.08-0.247,0.149-0.401,0.183c-0.134,0.029-0.362,0.003-0.583-0.038c-0.055-0.417,0.003-0.779,0.255-0.992  c0.825-0.695,0.917-1.271,0.998-1.779c0.016-0.096,0.035-0.191,0.056-0.287c0.205-0.052,0.397-0.12,0.571-0.191  c0.333-0.137,0.617-0.254,0.928-0.164c0.325,0.096,0.517,0.301,0.809,0.612c0.253,0.27,0.567,0.605,1.073,0.975  c0.973,0.711,1.128,1.956,1.002,2.238c-0.14,0.315,0.081,0.612,0.295,0.9c0.164,0.221,0.35,0.472,0.324,0.669  c-0.015,0.11-0.049,0.225-0.082,0.336c-0.009,0.032-0.018,0.065-0.026,0.098c-0.831,0.126-1.156-0.057-1.521-0.272  c-0.28-0.166-0.597-0.353-1.129-0.408c-1.059-0.113-1.713-0.058-2.675,0.339C8.106,34.169,8.004,34.024,7.927,33.885z M8.481,34.727  c0.787-0.315,1.32-0.351,2.194-0.269c-0.056,0.19-0.049,0.398-0.041,0.564c0.021,0.406-0.014,0.41-0.109,0.42  c-0.529,0.059-0.83,0.185-1.093,0.476C9.095,35.523,8.769,35.122,8.481,34.727z M11.552,38.493  c-0.243-0.419-0.706-0.956-1.399-1.744c-0.129-0.146-0.262-0.3-0.395-0.452c0.19-0.234,0.392-0.31,0.822-0.357  c0.6-0.067,0.569-0.638,0.553-0.944c-0.014-0.256-0.007-0.385,0.045-0.451c0.223,0.067,0.396,0.164,0.571,0.268  c0.324,0.191,0.656,0.388,1.273,0.388c0.132,0,0.282-0.013,0.442-0.033c0.013,0.099,0.039,0.195,0.105,0.283  c0.16,0.214,0.462,0.314,0.95,0.315c0.004,0,0.007,0,0.011,0c0.811,0,1.3-0.294,1.624-0.489c0.168-0.102,0.292-0.168,0.348-0.18  c0.224,0.155,0.72,1.521,1.076,2.754c-0.023,0.023-0.048,0.042-0.069,0.068c-0.248,0.31-0.331,0.747-0.207,1.087  c0.034,0.093,0.08,0.203,0.129,0.319c0.093,0.221,0.288,0.682,0.286,0.767c-0.273,0.054-0.918,0.303-1.013,1.432  c-0.008,0.09-0.025,0.165-0.039,0.245c-0.011,0.022-0.029,0.053-0.071,0.073c-0.08,0.038-0.217,0.015-0.389-0.065  c-0.084-0.039-0.117-0.068-0.124-0.068c0.006-0.03,0.04-0.097,0.063-0.143c0.1-0.199,0.267-0.533,0.033-0.95  c-0.296-0.528-0.779-0.74-1.346-0.646c0.017-0.82-0.417-1.702-0.88-1.991C13.421,37.647,12.461,37.753,11.552,38.493z   M13.226,41.641c-1.364-0.609-1.482-1.963-1.47-2.517c0.001-0.045-0.007-0.093-0.015-0.14c0.803-0.718,1.608-0.791,1.945-0.581  c0.403,0.252,0.902,1.424,0.507,2.135l-0.687,1.24C13.414,41.732,13.327,41.686,13.226,41.641z M17.609,44.967  c-0.019,0.041-0.037,0.087-0.055,0.133c-0.626-0.148-1.142-0.537-1.422-0.891c-0.113-0.143-0.218-0.283-0.321-0.42  c-0.468-0.624-0.923-1.22-1.864-1.774l0.684-1.233c0.051-0.092,0.083-0.191,0.114-0.292c0.664-0.21,0.914,0.223,0.996,0.371  c0.1,0.177,0.051,0.293-0.044,0.482c-0.072,0.144-0.161,0.322-0.091,0.522c0.068,0.196,0.254,0.302,0.388,0.365  c0.186,0.087,0.356,0.13,0.511,0.13c0.008,0,0.015-0.005,0.022-0.005c-0.08,0.276-0.147,0.541-0.062,0.824  c0.089,0.299,0.402,0.385,0.678,0.46c0.421,0.115,0.623,0.204,0.645,0.521C17.813,44.515,17.705,44.755,17.609,44.967z   M21.884,43.997c-0.985,0-1.84,0.248-2.54,0.738c-0.406,0.284-0.835,0.427-1.277,0.432c0.107-0.239,0.253-0.565,0.219-1.041  c-0.05-0.706-0.629-0.864-1.012-0.969c-0.113-0.031-0.302-0.083-0.331-0.122c-0.048-0.161,0.006-0.345,0.08-0.599  c0.043-0.147,0.088-0.329,0.126-0.528c0.007-0.02,0.013-0.04,0.015-0.046c0.002-0.008-0.005-0.015-0.004-0.023  c0.016-0.09,0.035-0.172,0.043-0.273c0.047-0.565,0.265-0.915,0.612-0.984c0.137-0.027,0.246-0.106,0.308-0.224  c0.16-0.301-0.039-0.772-0.231-1.229c-0.046-0.108-0.089-0.209-0.12-0.295c-0.063-0.174-0.008-0.434,0.128-0.604  c0.067-0.084,0.181-0.179,0.393-0.153c0.542,0.07,0.7,0.072,1.479-0.308c0.294-0.144,0.353-0.103,0.492,0  c0.132,0.097,0.33,0.236,0.685,0.211c0.009,0.001,0.018,0.001,0.027,0.001c0.001,0,0.003-0.002,0.004-0.002  c0.01-0.001,0.017,0.001,0.026,0c0.142-0.016,0.206,0.042,0.365,0.288c0.171,0.263,0.416,0.601,0.964,0.61  c0.214-0.006,0.391-0.031,0.549-0.055c0.404-0.061,0.644-0.081,1.221,0.358c0.005,0.025,0.009,0.051,0.014,0.076  c0.13,0.625,0.264,1.27,0.042,1.579c-0.267,0.373-0.31,0.685-0.347,0.96c-0.034,0.252-0.064,0.47-0.263,0.749  c-0.44,0.617-0.234,1.008,0.146,1.709C23.201,44.12,22.569,43.997,21.884,43.997z M28.286,43.55  c-0.301,0.14-0.594,0.293-0.868,0.474c-0.798,0.526-1.373,0.761-1.865,0.761c-0.286,0-0.575-0.071-0.999-0.244  c-0.049-0.02-0.108-0.043-0.176-0.068c-0.084-0.164-0.164-0.313-0.234-0.443c-0.384-0.708-0.44-0.836-0.185-1.193  c0.271-0.379,0.313-0.694,0.351-0.972c0.034-0.249,0.063-0.464,0.258-0.736c0.349-0.487,0.192-1.242,0.041-1.972  c-0.084-0.404-0.171-0.822-0.157-1.142c0.014-0.292,0.083-0.481,0.212-0.579c0.171-0.129,0.492-0.135,0.981-0.022  c0.637,0.148,1.326,0.05,1.83-0.023c0.051-0.007,0.092-0.012,0.139-0.018c0.093,0.429,0.296,1.349,0.457,2.002  c0.053,0.214,0.111,0.391,0.166,0.553c0.161,0.484,0.267,0.803,0.017,1.717C27.971,42.682,28.028,43.078,28.286,43.55z   M29.553,41.64c-0.096,0.538-0.181,1.051-0.136,1.497c-0.228,0.062-0.452,0.134-0.67,0.217c-0.219-0.383-0.26-0.664-0.01-1.575  c0.29-1.059,0.151-1.477-0.025-2.006c-0.05-0.151-0.105-0.316-0.154-0.516c-0.151-0.613-0.338-1.458-0.436-1.909  c0.252,0.041,0.597,0.26,0.803,0.426c0.049,0.22,0.151,0.448,0.283,0.709c0.194,0.382,0.413,0.816,0.488,1.338  C29.777,40.387,29.663,41.023,29.553,41.64z M31.161,42.733c0.002,0.044,0.004,0.09,0.007,0.135  c-0.428,0.018-0.85,0.064-1.259,0.147c-0.022-0.364,0.053-0.814,0.137-1.287c0.117-0.655,0.238-1.332,0.146-1.978  c-0.086-0.604-0.336-1.097-0.537-1.493c-0.135-0.265-0.25-0.494-0.267-0.659c-0.008-0.079,0.005-0.142,0.091-0.215  c0.21-0.177,0.418-0.296,0.62-0.411c0.352-0.2,0.683-0.39,0.91-0.821c0.121-0.23,0.244-0.354,0.375-0.378  c0.127-0.026,0.38,0.035,0.812,0.39c0.002,0.05-0.006,0.106,0.001,0.153c0.064,0.391,0.161,0.957,0.385,1.481  C31.002,39.931,31.074,41.295,31.161,42.733z M34.677,44.628c-0.391-0.684-0.878-1.534-1.897-1.682  c-0.374-0.054-0.744-0.076-1.112-0.083c-0.003-0.053-0.005-0.108-0.008-0.161c-0.082-1.355-0.135-2.545,1.19-4.419  c0.186,0.273,0.419,0.511,0.734,0.664c0.435,0.209,0.984,0.333,1.522,0.333c0.613,0,1.21-0.16,1.603-0.533l0.187-0.18  c0.477-0.461,0.674-0.652,1.303-0.668c0.306,0.021,0.634,0.175,0.984,0.369c0.397,0.22,0.844,0.448,1.314,0.417  c0.165,0.322,0.245,0.679,0.131,1.108c-0.288,1.083,0.01,1.71,0.355,2.437c0.069,0.146,0.141,0.302,0.212,0.466  c-0.687,0.205-1.167,0.438-1.521,0.691c-0.16-0.182-0.409-0.351-0.758-0.32c-0.268,0.017-0.509,0.18-0.721,0.323  c-0.077,0.052-0.184,0.125-0.251,0.155c-0.148-0.42-0.598-0.875-1.066-0.878c-0.001,0-0.002,0-0.004,0  c-0.198,0-0.555,0.084-0.759,0.642c-0.258,0.704-0.729,1.291-1.257,1.621C34.799,44.833,34.743,44.742,34.677,44.628z M38.726,45.25  c-0.445-0.114-1.043-0.025-1.88,0.147c-0.313,0.064-0.667,0.137-1.066,0.207c-0.261,0.045-0.449-0.059-0.632-0.266  c0.611-0.394,1.146-1.066,1.437-1.858c0.076-0.208,0.174-0.314,0.29-0.314c0,0,0,0,0.001,0c0.205,0.001,0.501,0.271,0.598,0.545  c0.061,0.171,0.161,0.28,0.298,0.326c0.24,0.08,0.466-0.072,0.704-0.233c0.16-0.108,0.34-0.23,0.473-0.238  c0.175-0.007,0.284,0.07,0.352,0.144C38.862,44.18,38.764,44.704,38.726,45.25z M39.689,46.034  c-0.126-0.166-0.279-0.349-0.479-0.518c0.056-1.018,0.116-1.757,2.178-2.358c0.112-0.036,0.172,0.008,0.34,0.224  c0.113,0.146,0.379,0.49,0.737,0.23c0.176-0.128,0.326-0.423,0.598-0.979c0.297-0.605,0.704-1.435,1.076-1.626  c0.509-0.261,0.704-0.954,0.892-1.623c0.122-0.435,0.249-0.883,0.438-1.083c0.172-0.182,0.395-0.336,0.63-0.499  c0.251-0.173,0.515-0.367,0.737-0.606c0.117,0.507,0.254,0.95,0.35,1.233c-0.545,0.036-1.493,0.201-1.523,0.908  c-0.019,0.438,0.406,0.86,0.898,1.349c0.471,0.467,1.004,0.997,0.978,1.427c-0.003,0.048,0.022,0.086,0.043,0.125  c-0.868,0.567-1.313,1.568-1.199,2.819c0.145,1.585,1.315,2.675,2.092,3.233c-0.022,0.11-0.039,0.218-0.053,0.315  c-0.05,0.352-0.087,0.556-0.259,0.642c-0.17,0.065-0.93-0.265-1.214-0.389c-0.305-0.134-0.456-0.199-0.567-0.212  c-0.025-0.003-0.062-0.011-0.107-0.021c-0.299-0.059-0.921-0.187-1.363,0.12c-0.032,0.022-0.049,0.06-0.078,0.086h-3.933  c0.116-0.822,0.064-1.799-0.588-2.193C40.01,46.457,39.862,46.261,39.689,46.034z M42.068,49.332v1.033h-1.595  c0.035-0.148,0.068-0.274,0.096-0.324c0.071-0.129,0.161-0.39,0.237-0.709H42.068z M42.297,56.546  c-0.135-0.19-0.254-0.354-0.352-0.477c-0.198-0.251-0.489-0.574-0.807-0.925c-0.467-0.518-1.405-1.556-1.564-1.979  c0.39-0.406,0.571-1.186,0.775-2.216c0.005-0.026,0.012-0.057,0.017-0.085h1.952c0.138,0,0.25-0.112,0.25-0.25v-1.283h1.971  c-0.014,0.052-0.041,0.093-0.05,0.15c-0.076,0.499-0.036,0.769,0.137,0.931c0.196,0.185,0.46,0.129,0.717,0.073  c0.077-0.017,0.16-0.035,0.245-0.047c0.208-0.03,0.426,0.134,0.483,0.293c0.023,0.067,0.032,0.155-0.117,0.245  c-0.438,0.265-0.644,0.539-0.631,0.837c0.013,0.297,0.241,0.55,0.698,0.773c0.58,0.284-0.054,1.627-0.288,2.122  c-0.042,0.09-0.07,0.121-0.068,0.125c-0.021,0-0.074-0.012-0.112-0.02c-0.15-0.033-0.378-0.084-0.697-0.008  c-0.078,0.017-0.103,0.025-0.222-0.223c-0.087-0.182-0.219-0.456-0.534-0.456c-0.265,0-0.432,0.112-0.624,0.241  c-0.16,0.107-0.359,0.241-0.707,0.388c-0.205,0.086-0.342,0.216-0.407,0.387c-0.121,0.316,0.042,0.662,0.185,0.967  c0.063,0.134,0.181,0.383,0.161,0.467c-0.024,0.001-0.091-0.008-0.136-0.016C42.5,56.55,42.401,56.54,42.297,56.546z M43.78,58.869  c-0.111-0.188-0.22-0.368-0.332-0.551c0.249-0.174,0.54-0.304,0.77-0.279C43.879,58.26,43.786,58.571,43.78,58.869z M43.19,57.896  c-0.187-0.297-0.364-0.569-0.533-0.822c0.173,0.008,0.386-0.036,0.505-0.315c0.115-0.268-0.027-0.569-0.164-0.86  c-0.096-0.204-0.216-0.458-0.171-0.574c0.015-0.039,0.06-0.074,0.134-0.105c0.394-0.165,0.624-0.32,0.792-0.434  c0.177-0.119,0.238-0.156,0.325-0.163c0.027,0.021,0.075,0.12,0.103,0.18c0.103,0.213,0.293,0.611,0.787,0.492  c0.209-0.049,0.345-0.019,0.476,0.01c0.269,0.057,0.527,0.074,0.766-0.435c0.288-0.609,1.053-2.229,0.031-2.73  c-0.304-0.148-0.415-0.28-0.418-0.347c-0.003-0.067,0.098-0.209,0.391-0.387c0.319-0.193,0.445-0.516,0.329-0.841  c-0.145-0.403-0.604-0.683-1.024-0.621c-0.098,0.014-0.192,0.034-0.281,0.054c-0.097,0.021-0.243,0.053-0.262,0.058  c-0.002-0.003-0.053-0.092,0.009-0.498c0.029-0.19,0.099-0.321,0.213-0.401c0.265-0.185,0.747-0.087,0.977-0.04  c0.062,0.012,0.111,0.022,0.143,0.026c0.057,0.011,0.264,0.102,0.431,0.174c0.723,0.317,1.303,0.547,1.637,0.38  c0.417-0.208,0.479-0.639,0.533-1.019c0.06-0.417,0.116-0.812,0.54-1.089c0.41-0.268,1.094-0.201,1.642-0.146  c0.246,0.024,0.458,0.044,0.635,0.036c-0.022,0.398-0.085,0.8-0.269,0.997c-0.547,0.585-0.692,2.14-0.692,2.967  c0,0.771-1.093,2.08-1.828,2.771c-0.37,0.348-0.401,1.098-0.428,1.76c-0.011,0.266-0.025,0.624-0.071,0.741  c-0.338,0.148-0.727,0.376-1.109,1.048c-0.186,0.326-0.52,0.39-0.618,0.4c-0.164,0.02-0.26-0.021-0.269-0.023  c-0.075-0.262-0.271-0.451-0.512-0.494c-0.227-0.039-0.454,0.055-0.635,0.261c-0.107-0.078-0.262-0.124-0.491-0.089  c-0.148-0.15-0.326-0.259-0.551-0.276C43.911,57.518,43.52,57.677,43.19,57.896z M44.325,59.319  c-0.084-0.482-0.112-0.786,0.359-0.955c0.293-0.104,0.334-0.048,0.359-0.014c0.033,0.047,0.111,0.157,0.262,0.158  c0.001,0,0.002,0,0.002,0c0.167,0,0.27-0.14,0.337-0.232c0.071-0.097,0.145-0.15,0.205-0.14c0.05,0.009,0.097,0.064,0.119,0.139  c0.059,0.208,0.26,0.352,0.537,0.385c0.404,0.052,0.971-0.135,1.265-0.651c0.321-0.564,0.615-0.726,0.913-0.854  c0.29-0.124,0.307-0.537,0.333-1.162c0.021-0.51,0.05-1.208,0.271-1.417c0.081-0.076,1.985-1.882,1.985-3.135  c0-0.983,0.195-2.238,0.558-2.626c0.359-0.385,0.415-1.078,0.418-1.671c0-0.009,0-0.017,0-0.026c0-0.137-0.001-0.276-0.003-0.396  l-0.004-0.234c0-0.383,0.533-1.031,0.938-1.031c0.112,0,0.268,0.16,0.432,0.33c0.338,0.349,0.8,0.826,1.646,0.826  c0.511,0,0.782,0.063,0.98,0.108c0.306,0.07,0.493,0.096,0.811-0.187l0.164-0.151c0.323-0.301,0.458-0.422,0.853-0.285  c0.489,0.17,0.771-0.044,0.997-0.217c0.145-0.111,0.281-0.216,0.493-0.257c0.199-0.039,0.34-0.043,0.464-0.046  c0.304-0.008,0.508-0.037,0.776-0.37c0.098-0.123,0.464,0.025,0.733,0.134c0.214,0.087,0.417,0.17,0.594,0.177  c0.06,0.002,0.134,0.003,0.211,0.002c0.354,0.009,1.018,0,1.225,0.345c0.265,0.44,0.943,0.361,1.601,0.285  c0.377-0.044,0.844-0.098,0.993-0.001c0.167,0.11,0.313,0.348,0.456,0.578c0.202,0.327,0.438,0.668,0.794,0.733  c0.026,0.416,0.216,0.737,0.368,0.977c0.162,0.255,0.223,0.37,0.17,0.475c-0.069,0.139-0.282,0.335-0.508,0.543  c-0.48,0.443-1.078,0.994-1.241,1.757c-0.136,0.633-0.18,1.248-0.211,1.696c-0.021,0.284-0.039,0.552-0.063,0.628  c-0.01,0.008-0.045,0.023-0.07,0.035c-0.268,0.122-0.571,0.321-0.779,1.141c-0.14,0.55-0.085,0.764,0.028,0.972  c0.002,0.002,0,0.005,0.002,0.008c0.001,0.002,0.003,0.001,0.004,0.003c0.011,0.019,0.019,0.038,0.03,0.058  c0.086,0.145,0.193,0.323,0.116,1.058c-0.17,1.617-0.173,2.824,0.338,3.846c0.212,0.426,0.467,0.693,0.69,0.929  c0.248,0.261,0.419,0.456,0.472,0.774c-1.281,0.188-2.169,0.839-2.424,1.325c-0.159,0.303-0.073,0.508-0.007,0.603  c0.236,0.342,0.236,1.207,0.236,1.623c0,0.099-0.01,0.221-0.021,0.355c-0.043,0.54-0.103,1.28,0.313,1.696  c0.353,0.353,0.826,0.166,1.11,0.053c0.013-0.006,0.026-0.011,0.04-0.017c0.005,0.092,0.012,0.19,0.019,0.292  c0.017,0.245,0.039,0.567,0.01,0.753c-0.136-0.038-0.348-0.079-0.632,0.022c-0.116,0.042-0.143,0.048-0.3-0.324  c-0.141-0.335-0.354-0.841-0.971-0.893c-0.432-0.037-0.61-0.307-0.783-0.568c-0.134-0.202-0.304-0.463-0.599-0.415  c-0.142,0.019-0.259,0.071-0.373,0.122c-0.239,0.107-0.51,0.226-1.172,0.1c-0.603-0.117-1.025-0.4-1.366-0.627  c-0.23-0.154-0.43-0.287-0.637-0.339c-0.111-0.029-0.242-0.038-0.383-0.038c-0.002,0-0.004-0.003-0.006-0.003  c-0.003,0-0.005,0.003-0.008,0.003c-0.331,0.001-0.734,0.063-1.212,0.139c-0.206,0.032-0.422,0.066-0.643,0.097  c-0.069,0.01-0.121,0.014-0.158,0.015c0.013-0.037,0.027-0.078,0.041-0.112c0.072-0.194,0.163-0.435,0.134-0.697  c-0.048-0.433-0.328-0.676-0.514-0.837c-0.051-0.044-0.117-0.099-0.125-0.089v-3.109c0-0.136-0.108-0.247-0.245-0.25  c0,0-0.753-0.016-1.364-0.016c-0.027,0-0.05-0.001-0.068-0.002c-0.071-0.253-0.315-0.336-0.656-0.379  c-0.374-0.048-0.652,0.008-0.854,0.169c-0.28,0.223-0.317,0.583-0.343,0.821c-0.023,0.225-0.516,0.544-1.739,0.484  c-0.31-0.014-0.566-0.141-0.786-0.386c-0.473-0.53-0.591-1.42-0.581-1.571c0.02-0.226,0.022-0.551-0.188-0.782  c-0.134-0.146-0.323-0.221-0.561-0.221H44.33C44.328,59.344,44.327,59.332,44.325,59.319z M43.687,72.494  c0.26-0.493,0.554-1.053,0.505-1.909c-0.036-0.63,0.399-1.107,0.904-1.66c0.717-0.787,1.609-1.766,0.878-3.335  c-0.548-1.18-0.514-1.553-0.474-1.985c0.035-0.374,0.074-0.799-0.174-1.58c-0.189-0.597-0.561-1.371-0.991-2.168h4.599  c0.091,0,0.156,0.02,0.191,0.059c0.058,0.063,0.078,0.197,0.06,0.398c-0.02,0.209,0.109,1.264,0.689,1.931  c0.313,0.359,0.7,0.552,1.152,0.572c2.011,0.088,2.234-0.69,2.261-0.934c0.021-0.213,0.049-0.396,0.155-0.48  c0.111-0.09,0.322-0.085,0.48-0.064c0.15,0.019,0.221,0.041,0.24,0.041c0,0,0,0,0.001,0c0.049,0.344,0.384,0.344,0.546,0.344  c0.391,0,0.839,0.007,1.109,0.011v2.864c0,0.209,0.151,0.34,0.298,0.467c0.156,0.136,0.318,0.276,0.345,0.514  c0.016,0.144-0.049,0.315-0.105,0.466c-0.078,0.206-0.166,0.44-0.016,0.629c0.148,0.186,0.422,0.175,0.669,0.142  c0.225-0.031,0.443-0.066,0.652-0.1c0.322-0.051,0.629-0.097,0.892-0.119v1.268c0,0.788-0.649,0.906-1.037,0.906h-1.354  c-0.138,0-0.25,0.112-0.25,0.25v4.031c0,0.218,0.203,0.442,0.831,1.079c0.106,0.108,0.215,0.219,0.319,0.327  c-1.226,0.341-3.385,0.422-4.191,0.422c-0.082,0-0.187-0.063-0.318-0.145c-0.245-0.15-0.58-0.355-1.119-0.355h-5.168  c-0.195,0-0.244-0.058-0.349-0.185c-0.147-0.177-0.35-0.42-0.92-0.42c-0.449,0-0.733,0.049-1.034,0.102  c-0.185,0.032-0.38,0.063-0.621,0.087C43.245,73.335,43.45,72.944,43.687,72.494z M49.228,88.198  c-0.178-0.247-0.368-0.49-0.582-0.71c-0.194-0.199-0.334-0.344-0.753-1.076c-0.152-0.267-0.183-0.702-0.215-1.164  c-0.042-0.603-0.09-1.287-0.414-1.924c-0.231-0.456-0.207-0.667-0.165-1.017c0.038-0.315,0.084-0.708-0.042-1.299  c-0.159-0.744-0.649-1.503-1.328-2.552c-0.513-0.793-1.152-1.779-1.846-3.065c-0.196-0.363-0.326-0.668-0.416-0.939  c0.225-0.024,0.412-0.055,0.58-0.084c0.291-0.05,0.542-0.094,0.949-0.094c0.336,0,0.416,0.096,0.537,0.24  c0.128,0.153,0.303,0.364,0.733,0.364h5.168c0.398,0,0.632,0.144,0.857,0.281c0.176,0.107,0.356,0.219,0.58,0.219  c0.033,0,3.314-0.007,4.736-0.57c0.813-0.318,1.131-0.207,1.44-0.1c0.158,0.056,0.323,0.113,0.532,0.117  c0.097,0.002,0.214,0.101,0.333,0.241c-0.941-0.019-1.492,0.195-1.745,0.346l-0.385-0.295c-0.054-0.041-0.12-0.057-0.187-0.05  l-2.938,0.406c-0.124,0.018-0.216,0.123-0.216,0.248v4.563h-1.031c-0.138,0-0.25,0.112-0.25,0.25v7.675  c-0.151,0.064-0.392,0.175-0.656,0.327c-0.529,0.307-1.484,0.706-1.941-0.067c-0.268-0.451-0.566-0.65-0.874-0.608  C49.551,87.883,49.383,87.979,49.228,88.198z M67.61,88.584c-0.506,0.383-1.221,1.122-2.404,2.346  c-0.518,0.536-1.124,1.163-1.838,1.89c-1.749,1.781-2.717,1.781-3.082,1.781l-0.271-0.004c-0.067,0-0.156,0.002-0.247,0.021  c-0.211,0.045-0.396,0.161-0.576,0.273c-0.286,0.18-0.576,0.352-0.916,0.24c-0.459-0.149-1.13-0.172-1.488-0.172  c-1.004,0-2.372,0.165-3.202,0.628c-0.621,0.347-0.811,0.296-1.389-0.135l-0.2-0.147c-0.688-0.494-0.617-0.967-0.444-1.696  c0.046-0.194,0.089-0.38,0.107-0.551c0.068-0.62-0.348-1.092-0.715-1.508c-0.241-0.273-0.491-0.556-0.542-0.813  c-0.116-0.577-0.425-1.336-0.873-2.069c0.089-0.204,0.181-0.305,0.236-0.313c0.044-0.026,0.186,0.061,0.369,0.369  c0.271,0.457,0.694,0.688,1.216,0.688c0.416,0,0.894-0.147,1.405-0.443c0.396-0.229,0.738-0.355,0.742-0.357  c0.099-0.035,0.164-0.13,0.164-0.234v-3.783c0.249,0.189,0.47,0.502,0.459,0.772c-0.007,0.171-0.087,0.341-0.158,0.49  c-0.089,0.188-0.172,0.364-0.098,0.543c0.028,0.069,0.092,0.162,0.234,0.213c0.128,0.046,0.408,0.105,0.751,0.105  c0.583,0,1.346-0.173,1.85-0.884c0.248-0.352,0.392-0.603,0.487-0.769c0.144-0.251,0.144-0.251,0.328-0.251  c0.074,0,0.074,0,0.129,0.084c0.144,0.221,0.338,0.437,0.977,0.437c0.188,0,0.359,0.002,0.514,0.004  c0.707,0.012,1.09,0.015,1.338-0.216c0.108-0.101,0.17-0.251,0.24-0.426c0.15-0.368,0.282-0.632,0.612-0.683  c0.481-0.073,0.688-0.46,0.872-0.801c0.158-0.296,0.309-0.575,0.621-0.678c0.47-0.153,0.656-0.452,0.807-0.692  c0.146-0.233,0.226-0.361,0.531-0.373c0.539-0.021,0.703-0.208,0.836-0.414c0.062-0.096,0.079-0.124,0.23-0.143  c0.19-0.019,0.355,0.032,0.584,0.108c0.319,0.106,0.724,0.229,1.333,0.193c0.07,0.388,0.241,1.193,0.532,1.787  c0.292,0.596,0.13,1.255-0.001,1.785l-0.05,0.205c-0.004,0.017,0,0.028-0.003,0.045c-0.249-0.125-0.549-0.176-0.811,0.105  l-0.066,0.069c-0.298,0.313-0.854,0.892-0.764,1.482c0.081,0.534,0.571,0.87,1.26,0.87c0.024,0,0.049,0,0.074-0.001  c0.385-0.014,0.675-0.188,0.872-0.509c0.075,0.033,0.153,0.06,0.231,0.082C68.211,87.731,67.91,88.356,67.61,88.584z M67.798,86.728  c-0.112,0.225-0.263,0.33-0.504,0.339c-0.119,0.009-0.755,0.004-0.822-0.443c-0.053-0.348,0.427-0.849,0.631-1.062l0.07-0.074  c0.048-0.052,0.115-0.093,0.438,0.144c0.016,0.105,0.031,0.211,0.052,0.306c0.038,0.175,0.074,0.34,0.063,0.504  C67.719,86.543,67.75,86.638,67.798,86.728z M79.608,70.863L79.6,71.435c-0.016,1.142-1.952,2.102-2.974,2.449  c-0.82,0.279-2.669,1.78-4.37,3.212l-0.228,0.19c-0.719,0.602-0.416,1.793-0.123,2.945c0.14,0.55,0.284,1.119,0.259,1.441  c-0.016,0.196-0.022,0.386-0.027,0.566c-0.026,0.83-0.062,1.103-0.63,1.317c-2.188,0.826-2.88,1.43-2.845,2.484  c0.005,0.138-0.034,0.362-0.101,0.62c-0.144-0.044-0.273-0.105-0.338-0.188c0.016-0.234-0.029-0.442-0.073-0.644  c-0.052-0.238-0.101-0.464-0.041-0.724l0.047-0.196c0.142-0.577,0.336-1.367-0.035-2.126c-0.289-0.589-0.454-1.452-0.506-1.755  c0.135-0.159,0.44-0.51,0.732-0.779c0.522-0.482,0.762-0.818,0.797-1.123c0.034-0.285,0.154-0.478,0.367-0.589  c0.195-0.102,0.342-0.286,0.414-0.521c0.096-0.311,0.056-0.676-0.106-0.976c-0.124-0.232-0.003-0.88,0.36-1.925  c0.152-0.438,0.085-0.937-0.181-1.334c-0.212-0.317-0.512-0.511-0.822-0.529c-0.325-0.019-0.889-0.396-1.166-0.629  c-0.05-0.042-0.112-0.062-0.176-0.059l-0.767,0.047v-0.422c0-0.014-0.013-0.022-0.016-0.036c-0.002-0.014,0.009-0.026,0.004-0.04  c-0.057-0.179-0.123-0.32-0.179-0.437c-0.035-0.075-0.078-0.167-0.087-0.173c0.011-0.017,0.072-0.078,0.4-0.207  c0.739-0.29,2.598-0.831,3.097-0.976c0.043,0.037,0.085,0.071,0.13,0.116c0.206,0.208,0.49,0.496,1.041,0.438  c0.112-0.017,0.207,0.034,0.274,0.145c0.129,0.21,0.147,0.622-0.116,1.034c-0.198,0.312-0.229,0.651-0.088,0.983  c0.202,0.476,0.72,0.82,1,0.876c0.029,0.006,0.058,0.009,0.085,0.009c0.277,0,0.433-0.295,0.571-0.559  c0.094-0.179,0.235-0.448,0.355-0.47c0.52-0.095,0.45-0.678,0.405-1.063c-0.024-0.201-0.049-0.409-0.019-0.547  c0.096-0.442-0.226-0.782-0.514-0.967c0.002-0.179-0.067-0.337-0.145-0.512c-0.105-0.237-0.235-0.532-0.297-1.061  c-0.077-0.671,0.119-1.073,0.292-1.43c0.064-0.133,0.12-0.263,0.165-0.396c0.19-0.059,0.397-0.12,0.576-0.12  c0.218,0,0.343,0.066,0.501,0.149c0.19,0.101,0.427,0.226,0.827,0.226c0.352,0,0.632-0.143,0.902-0.28  c0.318-0.162,0.646-0.329,1.16-0.329c0.813,0,1.601-0.404,2.121-0.778C79.678,66.687,79.629,69.672,79.608,70.863z M79.192,65.168  c0.044,0.062,0.069,0.107,0.107,0.164c-0.444,0.335-1.175,0.734-1.903,0.734c-0.634,0-1.051,0.213-1.387,0.383  c-0.248,0.127-0.444,0.227-0.676,0.227c-0.276,0-0.424-0.077-0.594-0.167c-0.184-0.098-0.393-0.208-0.734-0.208  c-0.273,0-0.556,0.089-0.783,0.16c-0.072,0.022-0.16,0.051-0.23,0.068c0.006-1.361-0.387-1.836-0.704-2.22l-0.072-0.088  c-0.166-0.206-0.376-0.259-0.584-0.269c-0.004-0.001-0.005-0.005-0.009-0.005c-0.004-0.001-0.006,0.003-0.011,0.003  c-0.095-0.003-0.188-0.001-0.278,0.005c-0.262,0.019-0.533,0.034-0.845-0.115c-0.18-0.086-0.353-0.174-0.52-0.258  c-0.555-0.281-1.034-0.524-1.481-0.577c-0.029-0.004-0.049-0.024-0.074-0.033c-0.111-0.39-0.192-0.719-0.257-0.991  c-0.158-0.661-0.263-1.098-0.649-1.608c-0.123-0.162-0.22-0.277-0.296-0.368c-0.219-0.26-0.219-0.26-0.242-0.784  c-0.017-0.369-0.129-0.808-0.312-1.23c1.14-0.991,1.586-1.652,1.429-2.128c-0.069-0.209-0.194-0.384-0.295-0.524  c-0.037-0.053-0.089-0.124-0.116-0.173c0.011-0.006,0.023-0.011,0.039-0.018c0.279-0.104,0.391-0.296,0.436-0.438  c0.105-0.336-0.038-0.794-0.42-1.408c0.095-0.01,0.222-0.005,0.437,0.01c0.196,0.014,0.45,0.028,0.752,0.032  c0.121,0.261,0.039,0.612-0.07,0.811c-0.161,0.29-0.133,0.831,0.059,1.157c0.151,0.257,0.353,0.295,0.459,0.295  c0.105,0,0.21-0.035,0.312-0.104c0.349-0.237,0.674-0.249,1.229-0.036c0.097,0.037,0.181,0.056,0.257,0.056  c0.408,0,0.438-0.408,0.461-0.735c0.017-0.227,0.037-0.509,0.132-0.813l0.077-0.256c0.049-0.162,0.089-0.29,0.129-0.401l4.367,2.539  v0.502c0,0.08,0.038,0.155,0.103,0.202l1.78,1.298c-0.328,0.775-0.641,2.05-0.122,2.674c0.274,0.329,0.366,0.44,0.2,1.873  C78.142,63.69,78.773,64.579,79.192,65.168z M78.45,57.379c-0.004,0.006-0.009,0.017-0.013,0.023l-1.608-1.172v-0.519  c0-0.089-0.047-0.171-0.124-0.216l-4.483-2.607c0.085-0.07,0.184-0.126,0.335-0.164c0.476-0.118,0.519-0.399,0.516-0.515  c-0.01-0.313-0.339-0.55-0.735-0.688c0.116-0.343,0.292-0.672,0.496-1.011c0.295-0.49,0.601-0.997,0.662-1.585  c0.078-0.757-0.427-1.561-0.832-2.208c-0.151-0.241-0.283-0.461-0.365-0.641c0.119-0.174,0.207-0.257,0.339-0.26  c0.118-0.003,0.239-0.01,0.365-0.017c0.536-0.031,1.142-0.066,1.844,0.231c0.26,0.11,0.528,0.246,0.799,0.382  c0.685,0.345,1.393,0.702,2.041,0.702c0.021,0,0.043,0,0.063-0.001c0.455-0.017,0.651,0.07,0.802,0.134  c0.13,0.054,0.279,0.117,0.467,0.058c0.133-0.042,0.258-0.165,0.505-0.417c0.271-0.276,0.827-0.854,1.09-0.748l0.237,0.104  c0.251,0.112,0.485,0.211,0.74,0.241c-0.207,0.707-0.763,1-0.789,1.013c-0.085,0.042-0.139,0.129-0.139,0.224v4.063  c0,1.136,0.014,1.254,0.488,1.691c0.003,0.003,0.008,0.008,0.012,0.011C79.978,55.133,78.677,57.023,78.45,57.379z M92.653,35.61  c-0.054,0.338-0.121,0.758-0.071,1.218c0.052,0.481-0.367,1.388-0.851,2.438c-0.47,1.019-1.055,2.286-1.447,3.686  c-0.57,2.032-3.889,5.02-5.871,6.805c-0.722,0.65-1.243,1.12-1.503,1.419c-0.317,0.365-0.856,1.082-1.453,1.903  c-0.292-0.271-0.295-0.31-0.295-1.294v-3.921c0.256-0.17,0.777-0.627,0.942-1.44c0.086-0.025,0.167-0.041,0.261-0.086  c0.185-0.09,0.401-0.234,0.652-0.4c0.574-0.381,1.359-0.902,2.043-0.902c0.018,0,0.031,0,0.044,0c0.96,0,1.631-0.838,2.555-1.996  c0.223-0.278,0.462-0.578,0.726-0.891c1.194-1.418,3.139-5.298,3.735-6.717c0.147-0.059,0.294-0.119,0.451-0.143  c0.042-0.006,0.081-0.011,0.129-0.013C92.691,35.375,92.67,35.505,92.653,35.61z M63.564,88.47c-0.008,0-0.074,0.003-0.082,0.004  c-0.336,0.032-0.839,0.161-1.327,0.909c-0.093,0.145-0.247,0.209-0.396,0.271c-0.159,0.066-0.377,0.157-0.394,0.396  c-0.015,0.204,0.368,0.976,0.689,1.32c0.183,0.197,0.36,0.293,0.543,0.293c0.012,0,0.055-0.003,0.066-0.004  c0.423-0.059,0.564-0.392,0.649-0.591c0.01-0.023,0.021-0.051,0.032-0.074c0.008,0.002,0.017,0.003,0.025,0.005  c0.188,0.034,0.435,0.049,0.597-0.039c0.21-0.114,1.078-1.215,1.019-1.574C64.929,89.037,64.125,88.47,63.564,88.47z M63.73,90.52  c-0.017,0.01-0.167,0.006-0.269-0.013c-0.072-0.014-0.136-0.023-0.183-0.023c-0.033,0-0.104,0.013-0.134,0.024  c-0.166,0.068-0.232,0.226-0.291,0.364c-0.082,0.191-0.128,0.272-0.257,0.29c-0.187-0.011-0.607-0.737-0.714-1.019  c0.022-0.01,0.048-0.02,0.068-0.028c0.178-0.074,0.445-0.187,0.623-0.459c0.365-0.562,0.701-0.661,0.989-0.687  c0.323,0,0.793,0.344,0.914,0.493C64.384,89.701,63.879,90.419,63.73,90.52z"/></svg>