<?xml version="1.0" standalone="no"?>
<!DOCTYPE svg PUBLIC "-//W3C//DTD SVG 20010904//EN"
 "http://www.w3.org/TR/2001/REC-SVG-20010904/DTD/svg10.dtd">
<svg version="1.0" xmlns="http://www.w3.org/2000/svg"
 width="837.000000pt" height="911.000000pt" viewBox="0 0 837.000000 911.000000"
 preserveAspectRatio="xMidYMid meet">
<metadata>
Created by potrace 1.16, written by Peter Selinger 2001-2019
</metadata>
<g transform="translate(0.000000,911.000000) scale(0.100000,-0.100000)"
fill="#000000" stroke="none">
<path d="M3330 8953 c-14 -2 -66 -15 -116 -29 -80 -22 -98 -24 -155 -15 -225
35 -346 24 -578 -54 -192 -64 -306 -90 -370 -82 -25 3 -85 22 -133 41 -98 40
-161 46 -194 18 -11 -9 -41 -44 -67 -78 -60 -80 -104 -118 -163 -139 -131 -48
-177 -78 -218 -144 -32 -50 -62 -136 -76 -212 -21 -116 -35 -127 -228 -200
-98 -36 -154 -77 -202 -144 -19 -27 -78 -94 -131 -150 -65 -67 -107 -121 -129
-165 -23 -45 -63 -97 -134 -170 -104 -107 -137 -158 -162 -253 -18 -68 -18
-189 1 -251 29 -94 19 -182 -35 -306 -16 -36 -32 -87 -35 -114 -6 -39 -17 -59
-56 -102 -61 -67 -76 -116 -61 -202 20 -123 89 -237 264 -440 138 -160 145
-170 152 -230 18 -138 76 -218 215 -292 63 -34 96 -59 135 -105 28 -33 78 -87
111 -121 71 -72 131 -97 233 -96 58 0 75 5 160 48 l95 49 111 -1 c98 -1 121
-4 198 -32 136 -49 209 -40 348 44 133 81 241 110 380 102 97 -6 117 -18 170
-106 87 -147 126 -165 287 -133 59 11 119 21 132 21 15 0 46 -23 92 -70 67
-67 69 -71 69 -120 0 -27 -9 -76 -20 -107 -10 -32 -29 -101 -40 -153 -13 -59
-31 -109 -47 -132 -47 -68 -20 -127 137 -303 93 -103 201 -260 289 -420 90
-161 103 -201 111 -335 7 -97 13 -127 40 -193 29 -70 32 -82 22 -115 -6 -20
-37 -66 -68 -101 -92 -106 -106 -131 -115 -218 -5 -55 -18 -100 -42 -153 -44
-96 -51 -136 -36 -211 15 -77 68 -182 199 -389 144 -230 150 -244 150 -360 0
-74 5 -105 21 -140 11 -25 25 -83 30 -130 17 -153 26 -175 121 -291 73 -88
102 -141 133 -234 18 -56 39 -95 75 -139 31 -38 48 -67 44 -76 -3 -8 -8 -52
-11 -97 -5 -75 -4 -85 20 -125 15 -27 50 -61 88 -88 84 -59 130 -63 226 -21
115 50 228 60 405 35 39 -5 57 -2 100 19 29 14 78 28 108 32 78 10 140 36 212
88 84 61 560 542 585 592 29 56 63 171 63 211 0 20 8 42 20 54 20 20 107 66
170 90 55 21 101 59 118 99 25 57 22 244 -5 346 -27 100 -31 148 -13 170 21
26 248 206 316 252 32 21 75 45 94 53 143 54 258 139 302 222 22 42 23 50 23
328 0 157 -4 302 -8 322 -4 20 -23 58 -41 85 -67 98 -70 106 -70 255 -1 127
-3 138 -25 168 -19 27 -22 40 -17 77 9 69 38 123 148 282 219 315 289 401 424
526 439 408 524 511 604 739 26 72 72 187 102 256 88 196 99 227 103 309 2 42
7 97 10 122 5 33 2 56 -9 78 -32 61 -115 55 -263 -19 -94 -48 -112 -54 -196
-61 -84 -7 -101 -13 -202 -64 -120 -61 -153 -66 -213 -36 -59 30 -74 51 -60
87 6 17 8 46 4 66 -13 73 -164 208 -330 299 -125 68 -170 109 -185 169 -40
161 -73 218 -172 293 -35 27 -70 61 -77 74 -8 14 -25 80 -39 146 -34 164 -55
206 -155 313 -74 80 -93 108 -155 235 -39 79 -93 178 -121 220 l-49 75 27 12
c45 20 55 53 55 176 -1 129 -23 202 -82 267 -30 33 -42 39 -75 39 -22 0 -62
-8 -88 -17 -46 -16 -49 -16 -100 5 -76 32 -171 30 -253 -4 -92 -39 -168 -42
-307 -10 -66 16 -175 31 -255 37 -132 10 -144 13 -214 47 -63 32 -82 37 -140
36 -83 0 -155 -32 -189 -84 -21 -30 -23 -43 -19 -95 3 -32 1 -67 -4 -77 -16
-30 -61 -22 -125 24 -78 55 -137 80 -182 78 -57 -3 -58 -3 -77 41 -43 95 -141
144 -311 156 -82 6 -89 8 -145 50 -32 23 -59 47 -59 51 0 5 9 17 21 28 53 48
78 143 55 216 -35 116 -158 196 -276 181z m106 -124 c40 -24 74 -77 74 -113 0
-34 -14 -61 -56 -109 -59 -65 -40 -132 56 -204 27 -20 50 -40 50 -43 0 -17
-44 -72 -63 -79 -33 -13 -43 -29 -61 -96 -15 -60 -35 -85 -67 -85 -12 0 -23
22 -43 83 -30 97 -84 185 -149 244 -26 23 -47 50 -47 61 0 12 22 35 60 61 33
23 65 51 71 62 6 11 15 61 20 110 5 50 14 99 19 110 15 27 91 26 136 -2z
m-406 -21 c69 -8 111 -9 149 -1 l53 11 -7 -77 c-4 -42 -11 -84 -16 -93 -5 -10
-34 -36 -64 -58 -62 -45 -75 -65 -75 -110 0 -26 13 -45 66 -99 36 -37 75 -83
86 -102 29 -46 64 -152 73 -218 4 -30 16 -84 26 -120 26 -89 24 -161 -7 -294
-27 -120 -26 -160 6 -212 21 -34 86 -75 120 -75 35 0 57 -17 84 -66 14 -26 26
-48 26 -50 0 -2 -26 -17 -59 -33 -81 -42 -346 -201 -466 -281 -55 -37 -129
-82 -164 -99 -77 -39 -206 -74 -245 -66 -19 3 -72 46 -153 123 -215 201 -295
272 -398 351 -84 63 -241 196 -636 537 -32 27 -59 56 -61 64 -2 8 -2 39 0 68
4 47 8 56 35 73 17 10 83 31 147 45 92 22 144 42 262 101 130 65 153 80 200
133 l52 60 80 0 c95 0 116 13 116 72 0 22 -5 49 -12 61 -7 12 -15 60 -18 107
-4 47 -8 91 -11 99 -3 10 15 17 66 28 39 8 135 36 215 63 80 27 163 54 185 59
58 13 235 13 345 -1z m-1086 -93 c47 -19 109 -38 138 -43 71 -10 97 -45 90
-124 -3 -39 2 -68 18 -107 26 -67 20 -73 -72 -65 l-68 7 -78 -76 c-68 -67 -94
-84 -212 -141 -97 -46 -163 -70 -235 -86 -109 -24 -180 -53 -194 -78 -5 -10
-12 -38 -16 -64 l-7 -47 -87 6 c-47 3 -122 9 -166 13 l-80 6 55 26 c30 14 87
38 127 52 140 53 179 99 207 246 28 149 77 221 173 255 128 45 191 91 268 199
22 31 43 56 47 56 4 0 46 -16 92 -35z m1792 -395 c124 0 185 -35 235 -132 24
-47 68 -69 134 -66 35 1 56 -6 97 -32 115 -73 139 -83 192 -84 61 0 97 18 127
67 16 26 19 46 17 102 l-3 70 45 23 c51 26 96 23 142 -9 42 -30 103 -48 188
-55 l79 -7 5 -41 c3 -23 19 -309 36 -636 17 -327 33 -610 36 -627 l5 -33 -56
0 c-48 0 -55 -2 -55 -20 0 -11 -3 -20 -6 -20 -4 0 -204 101 -444 225 -241 124
-445 225 -453 225 -8 0 -25 -8 -38 -19 -13 -10 -50 -33 -82 -51 -67 -38 -76
-37 -175 20 -39 23 -90 44 -114 48 -39 7 -46 12 -70 57 -34 64 -56 81 -114 90
-54 8 -99 45 -110 91 -4 17 1 61 16 118 34 137 37 225 11 319 -11 42 -21 81
-21 86 0 5 20 14 45 20 52 13 68 34 85 112 11 48 17 58 48 75 23 12 44 34 56
60 19 39 21 41 50 33 17 -5 58 -9 92 -9z m2058 -150 c53 -24 103 -22 158 6 37
19 48 11 76 -54 39 -90 41 -233 4 -216 -10 4 -33 9 -54 12 -30 3 -39 0 -53
-22 -22 -34 -17 -48 77 -190 44 -67 112 -184 150 -261 39 -77 79 -151 90 -165
20 -25 20 -25 -5 -45 -13 -11 -51 -43 -84 -71 l-60 -51 -483 -7 c-299 -4 -487
-3 -492 2 -7 7 -58 817 -68 1075 0 13 50 7 163 -20 162 -38 267 -36 367 6 86
36 133 36 214 1z m-4656 -324 c89 -7 165 -16 168 -19 4 -3 1 -35 -7 -72 l-13
-65 -165 0 c-91 0 -171 -4 -177 -8 -7 -4 -24 -63 -39 -132 -14 -69 -28 -133
-31 -142 -3 -9 -33 -33 -68 -52 -70 -39 -76 -49 -76 -136 0 -87 7 -84 -183
-64 l-165 17 9 25 c16 42 49 84 144 182 65 66 103 116 128 165 24 48 58 92
107 140 40 39 90 94 111 123 46 60 23 56 257 38z m362 -211 l131 -115 -65 0
c-36 0 -67 -4 -70 -8 -3 -5 -10 -246 -16 -536 -10 -482 -10 -529 5 -546 11
-12 14 -26 9 -44 l-6 -27 -276 7 c-246 6 -280 9 -308 26 -22 13 -47 18 -76 16
-35 -2 -46 -9 -64 -35 l-22 -32 -27 39 c-15 21 -38 46 -51 55 -14 9 -55 44
-92 79 -37 35 -77 68 -89 75 -27 14 -83 14 -118 1 -24 -9 -26 -8 -20 7 48 116
61 217 39 314 -20 90 -28 180 -17 195 6 8 60 5 195 -9 102 -11 193 -17 201
-14 11 4 16 31 22 101 l7 96 63 36 c35 19 66 43 69 52 6 18 56 251 56 258 0 2
79 4 175 4 l174 0 10 38 c6 20 11 44 11 53 0 14 8 29 16 29 2 0 62 -52 134
-115z m297 -256 c59 -50 164 -135 233 -189 121 -94 227 -189 420 -375 95 -91
116 -105 158 -105 l29 0 8 -119 c9 -156 -1 -192 -58 -220 -23 -11 -82 -29
-132 -41 -49 -11 -108 -28 -130 -36 -35 -14 -52 -14 -131 -3 -84 11 -95 11
-160 -9 -87 -27 -172 -71 -248 -131 -32 -25 -79 -53 -104 -61 -36 -11 -53 -25
-76 -58 -16 -24 -50 -60 -77 -79 -40 -28 -51 -44 -64 -86 -8 -28 -15 -60 -15
-71 0 -38 -14 -48 -43 -35 -22 10 -36 9 -83 -10 -31 -11 -72 -21 -92 -21 l-37
0 -34 101 c-37 109 -80 179 -110 179 -10 0 -48 -14 -84 -31 -48 -22 -77 -29
-109 -27 -37 3 -43 6 -40 23 11 73 6 111 -21 150 -36 53 -37 115 -1 179 14 25
29 48 32 50 4 2 30 -6 57 -19 48 -22 64 -23 347 -28 164 -3 299 -3 302 1 2 4
10 35 17 69 12 57 11 64 -5 82 -17 19 -18 45 -12 453 4 238 9 461 12 496 l6
62 69 0 70 0 106 -91z m1951 -220 c77 -41 103 -50 129 -46 l33 6 0 -43 c0 -55
21 -116 56 -162 24 -31 26 -37 14 -62 -7 -15 -16 -102 -22 -197 -11 -205 -20
-229 -132 -358 -95 -110 -110 -138 -103 -192 l6 -42 -52 -25 c-87 -42 -93 -43
-144 -9 -61 41 -100 40 -190 -3 -79 -38 -90 -38 -168 3 -50 27 -93 27 -156 0
l-49 -22 -40 45 c-68 78 -172 88 -279 27 -49 -28 -103 -89 -117 -131 -5 -16
-11 -18 -32 -12 -15 4 -40 8 -56 9 -16 1 -33 9 -37 18 -5 9 -26 19 -47 22 -68
12 -72 15 -66 40 4 17 -3 33 -29 62 -46 51 -87 112 -87 131 0 12 9 14 48 9 27
-3 64 -2 83 4 19 5 90 23 159 41 222 59 234 73 234 291 l1 150 60 17 c84 23
141 50 226 107 236 158 606 373 642 373 10 0 62 -23 115 -51z m965 -285 l247
-124 -2 -228 -3 -227 -48 -26 c-61 -33 -73 -51 -92 -136 -23 -98 -23 -98 -55
-132 -40 -41 -38 -63 9 -114 32 -35 81 -114 81 -130 0 -3 -12 -7 -27 -10 -18
-4 -51 -31 -91 -76 -46 -51 -79 -78 -125 -100 -34 -17 -112 -68 -174 -115
-121 -90 -123 -91 -303 -111 -30 -4 -69 -10 -87 -15 -29 -7 -32 -6 -44 24 -8
17 -46 66 -86 109 -40 43 -73 85 -73 93 0 18 40 34 84 34 18 0 40 6 50 13 17
13 17 17 -8 96 -29 91 -29 96 -20 190 9 87 -9 119 -103 183 l-74 49 17 28 c9
15 52 70 96 122 114 133 120 149 130 354 8 143 12 177 31 213 24 48 23 52 -38
128 -26 32 -30 47 -33 109 l-4 71 47 31 47 31 202 -105 c110 -57 312 -160 449
-229z m1637 290 c55 -60 77 -112 101 -242 29 -151 49 -193 121 -248 l59 -46
-49 -48 c-85 -84 -96 -118 -102 -315 -6 -190 -5 -187 -87 -283 -62 -74 -78
-102 -87 -157 -4 -22 -18 -53 -31 -70 -24 -29 -24 -29 -46 -10 -34 32 -48 68
-58 155 -12 105 -29 126 -102 123 -75 -2 -89 -19 -89 -112 0 -66 -4 -83 -30
-127 -51 -89 -110 -117 -161 -75 l-24 19 34 213 c18 118 35 231 38 251 5 32 1
41 -31 74 -38 39 -43 58 -25 98 9 20 6 39 -16 108 -15 45 -32 89 -38 96 -6 8
-37 12 -88 12 l-78 0 -3 138 -3 137 -217 3 -218 2 0 58 c0 31 -3 74 -6 94 l-7
37 214 2 c118 0 343 2 501 3 l286 2 39 27 c21 14 63 49 93 76 30 28 58 51 61
51 4 0 25 -21 49 -46z m-850 -474 l0 -109 -107 -3 -108 -3 -3 -169 c-2 -138 1
-179 15 -220 13 -41 16 -76 12 -176 -2 -69 -3 -176 -3 -237 1 -62 0 -113 -2
-113 -23 0 -76 34 -95 61 -30 44 -37 49 -77 49 -46 0 -104 -32 -146 -82 l-36
-43 -20 24 c-13 14 -20 38 -20 63 0 51 -40 134 -84 177 l-35 34 24 29 c14 16
32 55 40 86 35 131 37 135 88 162 26 14 52 32 57 40 6 8 10 131 10 278 l0 262
245 0 245 0 0 -110z m1198 -147 c11 -21 27 -69 36 -108 10 -38 27 -85 38 -103
29 -46 102 -102 207 -158 49 -26 117 -69 150 -97 l61 -49 -34 -38 c-39 -43
-61 -126 -51 -184 9 -43 21 -48 84 -31 l51 13 0 -32 c0 -24 16 -54 61 -114 55
-74 69 -86 133 -116 74 -36 180 -65 309 -87 l77 -13 -17 -25 c-43 -67 -220
-275 -252 -297 -20 -13 -47 -24 -62 -24 -49 0 -122 -29 -217 -86 l-95 -58 -47
17 c-84 30 -116 22 -185 -44 l-40 -39 -84 10 c-68 8 -104 19 -190 60 -59 27
-112 50 -119 50 -7 0 -10 10 -6 28 7 39 -15 73 -56 86 -26 8 -40 22 -55 52
-31 63 -133 192 -165 209 -16 8 -39 15 -50 15 -35 0 -17 24 31 40 57 20 67 42
75 164 6 80 11 103 29 125 30 36 45 66 45 91 0 34 26 82 81 146 88 103 92 116
94 299 2 151 3 163 28 211 21 42 95 124 112 124 2 0 13 -17 23 -37z m-6123
-110 c116 -107 139 -145 137 -233 -1 -45 5 -64 30 -103 39 -61 34 -97 -14 -97
-23 0 -146 46 -176 66 -2 1 6 12 18 24 44 44 -2 110 -106 150 -88 33 -133 36
-182 11 -23 -12 -53 -21 -67 -21 -21 0 -25 5 -25 29 0 21 14 46 49 86 39 44
53 69 61 111 6 30 12 54 14 54 1 0 26 9 56 19 38 14 61 16 78 10 13 -5 70 -53
127 -106z m5132 21 c17 -52 19 -71 11 -95 -15 -42 -3 -88 33 -125 l31 -32 -36
-224 c-20 -124 -36 -228 -36 -231 0 -4 -6 -7 -14 -7 -8 0 -53 -21 -101 -46
-74 -39 -95 -46 -150 -47 -35 -1 -67 2 -72 7 -4 4 -7 117 -5 250 2 197 0 250
-13 285 -11 31 -15 84 -15 187 l0 144 173 0 173 0 21 -66z m-3587 -234 c0 -36
27 -87 70 -134 30 -32 42 -55 45 -81 4 -48 12 -55 77 -70 83 -18 76 -42 -33
-117 -58 -39 -69 -44 -88 -34 -17 10 -314 15 -399 7 -20 -2 -52 -63 -52 -101
l0 -35 -82 3 c-83 3 -83 3 -121 45 -35 37 -38 44 -31 81 11 69 30 102 77 135
25 17 56 49 68 71 17 31 30 41 57 46 18 4 66 31 105 61 76 58 166 108 232 129
59 19 75 17 75 -6z m738 -180 c17 -11 32 -23 32 -27 0 -5 11 -21 25 -36 31
-33 71 -35 117 -7 52 31 95 25 176 -25 1 -1 -5 -18 -13 -38 -25 -61 -20 -127
15 -175 17 -23 29 -42 28 -42 -2 0 -25 11 -52 25 -96 49 -168 41 -239 -24 -65
-60 -100 -74 -171 -69 -115 8 -163 50 -192 171 -21 84 -10 129 44 189 67 74
163 98 230 58z m-2370 -67 c3 -39 1 -43 -20 -43 -13 0 -38 -9 -55 -20 l-33
-19 -35 46 c-19 25 -35 49 -35 54 0 12 79 28 130 26 l45 -2 3 -42z m3298 -115
c8 -16 26 -34 39 -40 14 -6 25 -15 25 -19 0 -5 -24 -26 -54 -48 -75 -55 -92
-81 -122 -180 -23 -73 -33 -92 -74 -131 -31 -30 -64 -78 -94 -138 l-46 -92
-21 21 c-22 22 -71 124 -83 173 -4 16 -2 60 5 96 15 87 0 136 -73 227 -58 74
-67 115 -33 167 20 29 160 106 195 106 12 0 38 -11 58 -25 49 -34 109 -33 187
4 l60 27 8 -59 c4 -33 14 -72 23 -89z m-3177 116 c33 -18 67 -27 100 -27 35
-1 51 -5 51 -14 0 -7 14 -20 32 -29 44 -23 135 -14 201 20 27 15 51 25 52 24
12 -14 43 -87 66 -156 26 -78 27 -86 14 -113 -21 -39 -19 -72 7 -131 18 -43
20 -52 8 -56 -32 -11 -68 -63 -76 -109 -6 -32 -14 -48 -24 -48 -11 0 -14 10
-12 42 6 74 -47 133 -118 133 -14 0 -20 7 -20 21 0 42 -24 100 -56 137 -30 36
-34 37 -95 37 -50 0 -74 -6 -109 -26 l-46 -25 -82 98 c-89 106 -89 107 -15
123 41 8 63 39 63 87 0 21 2 38 4 38 2 0 27 -12 55 -26z m5495 -13 c3 -5 10
-44 15 -87 11 -101 21 -124 72 -174 l42 -40 -6 -86 c-5 -91 -12 -104 -55 -104
-35 0 -72 -43 -72 -84 0 -40 28 -66 70 -66 37 0 117 -91 174 -196 26 -48 44
-63 89 -78 9 -3 17 -13 17 -23 0 -15 -10 -18 -68 -18 -94 0 -118 -9 -148 -55
-20 -30 -35 -41 -63 -46 -20 -3 -57 -13 -83 -22 -38 -12 -52 -13 -73 -4 -39
18 -96 14 -133 -8 -18 -11 -38 -20 -46 -20 -7 0 -30 25 -50 55 -20 31 -48 60
-63 66 -15 5 -62 7 -114 3 -85 -7 -89 -6 -119 20 -17 14 -35 26 -39 26 -5 0
-11 23 -15 50 -8 60 -45 106 -140 174 -33 24 -88 72 -121 106 -33 34 -76 70
-96 80 -62 32 -99 69 -99 98 1 62 70 158 132 181 24 9 29 7 47 -22 38 -62 137
-97 275 -97 82 0 138 16 206 60 56 36 73 37 125 5 70 -44 131 -30 198 44 58
65 71 97 72 181 0 41 5 78 10 82 14 11 53 10 59 -1z m2079 -118 c-6 -95 -17
-129 -118 -357 -31 -71 -70 -171 -86 -222 -59 -182 -184 -333 -554 -669 -130
-118 -161 -151 -241 -258 -39 -53 -44 -56 -53 -38 -7 12 -11 104 -11 239 l0
219 26 24 c15 13 35 42 45 65 16 34 34 50 123 103 82 49 118 64 164 71 77 11
107 27 167 92 171 182 323 419 465 726 31 66 48 92 61 92 16 0 18 -8 12 -87z
m-5697 33 c12 -9 27 -44 39 -93 l20 -78 -37 -59 c-69 -107 -107 -254 -94 -362
l6 -52 -53 -4 c-28 -2 -54 -3 -56 -1 -2 1 4 57 14 124 21 144 17 184 -31 297
-30 69 -34 86 -23 94 8 5 35 23 61 39 26 17 61 48 79 70 33 42 45 46 75 25z
m5534 -87 c-23 -46 -69 -135 -103 -196 l-61 -113 -41 6 c-150 21 -324 67 -381
103 -29 18 -108 113 -134 161 l-12 23 29 -21 c49 -35 115 -56 173 -57 48 0 72
8 170 58 104 52 124 58 206 66 61 6 108 18 140 33 27 13 50 23 52 22 2 -1 -15
-40 -38 -85z m-5920 -119 c7 -36 24 -103 37 -150 l25 -85 -17 -83 c-11 -52
-16 -103 -12 -137 3 -30 2 -55 -2 -55 -4 0 -38 -19 -76 -42 -102 -61 -146 -72
-212 -53 -48 14 -55 20 -78 65 -29 57 -31 77 -10 107 8 12 20 45 26 74 7 30
18 63 25 74 23 36 26 89 10 174 -19 97 -20 153 -5 168 6 6 60 10 143 9 l133
-1 13 -65z m136 -38 c45 -97 51 -160 27 -311 -16 -101 -21 -115 -41 -122 -36
-13 -46 27 -27 107 17 76 20 171 5 210 -6 15 -21 71 -34 125 l-23 98 28 -15
c20 -10 39 -37 65 -92z m1669 60 c10 -31 10 -42 1 -42 -29 0 -89 -23 -107 -41
-11 -11 -19 -33 -19 -54 0 -29 11 -46 63 -102 113 -121 129 -155 88 -180 -59
-37 -97 -168 -80 -275 13 -83 51 -149 128 -227 60 -60 63 -65 54 -95 -12 -41
-36 -43 -109 -11 -77 35 -160 43 -204 21 -27 -13 -66 -16 -208 -16 l-174 0 4
31 c3 17 1 53 -3 81 -7 45 -16 58 -84 126 -75 75 -76 77 -69 116 12 79 57 123
162 160 38 14 41 13 63 -10 17 -18 32 -24 53 -22 27 3 35 14 83 103 31 58 69
115 91 135 46 42 63 72 92 167 12 39 27 78 33 87 18 24 111 95 121 92 5 -1 15
-21 21 -44z m-2495 3 c14 -8 35 -14 47 -15 13 0 32 -13 44 -29 30 -40 62 -52
139 -49 90 4 116 -14 126 -88 5 -44 2 -64 -15 -103 -11 -28 -21 -58 -21 -68 0
-10 -11 -42 -25 -71 -29 -63 -31 -91 -9 -134 16 -30 16 -31 -8 -25 -57 15
-167 18 -223 8 -33 -6 -100 -31 -150 -56 -109 -55 -118 -56 -103 -14 13 37 4
95 -18 120 -9 10 -33 23 -53 30 -20 6 -39 14 -44 18 -4 4 2 47 12 95 19 86 40
126 68 126 7 0 19 12 25 26 10 21 8 37 -12 95 -31 89 -25 102 56 110 32 3 73
13 89 22 37 20 43 20 75 2z m1761 -40 c41 -19 84 -35 96 -35 37 0 48 -37 35
-113 -11 -72 -4 -128 28 -201 11 -27 18 -51 16 -53 -2 -3 -31 -17 -63 -32 -55
-26 -60 -27 -95 -13 -34 13 -40 13 -79 -6 l-43 -21 -33 34 c-27 28 -42 35 -72
35 -44 0 -59 -14 -92 -83 -22 -48 -78 -117 -95 -117 -5 0 -19 18 -31 39 -58
101 -118 140 -215 141 l-58 0 0 75 c0 40 5 98 11 127 11 53 73 193 91 204 5 3
19 -3 31 -14 78 -73 282 -79 343 -11 35 40 97 79 125 79 15 0 60 -16 100 -35z
m1752 -106 c-10 -69 21 -108 140 -179 20 -12 50 -38 65 -57 14 -20 73 -72 129
-115 108 -84 123 -101 123 -142 0 -33 -23 -34 -104 -6 -58 21 -87 19 -116 -5
-8 -7 -35 -16 -60 -20 -25 -4 -61 -17 -80 -28 -27 -17 -47 -21 -86 -19 -46 3
-55 0 -88 -28 l-36 -32 -89 10 c-88 9 -91 10 -151 61 -69 57 -91 62 -141 28
-48 -32 -79 -83 -79 -128 l0 -38 -97 2 c-106 2 -146 -11 -177 -55 l-16 -22
-50 49 c-119 117 -144 283 -57 382 45 51 94 70 233 87 67 8 138 21 157 30 20
8 77 46 127 85 51 39 128 90 171 112 59 31 92 56 127 98 26 31 51 59 57 63 5
4 31 -16 57 -45 42 -47 46 -56 41 -88z m-4148 95 c20 -8 51 -68 60 -117 6 -30
1 -48 -25 -99 -46 -89 -47 -90 -79 -74 -66 35 -109 100 -120 183 -7 51 -6 55
20 73 50 36 104 49 144 34z m180 -214 c15 -17 17 -26 8 -55 -16 -50 -6 -72 38
-91 32 -15 37 -21 33 -43 -7 -41 16 -73 66 -89 25 -8 48 -20 52 -26 12 -18 9
-61 -5 -80 -13 -18 -15 -18 -51 -1 -20 10 -58 43 -84 73 -66 78 -153 167 -177
180 -19 10 -19 13 15 81 30 59 39 70 61 71 14 0 34 -9 44 -20z m2046 -275 c28
-47 50 -51 109 -19 28 15 52 25 55 22 3 -3 -4 -25 -15 -49 -11 -24 -20 -56
-20 -71 0 -27 -2 -28 -57 -28 -31 0 -95 -7 -143 -17 -124 -23 -134 -16 -72 52
28 30 58 75 67 100 22 56 47 59 76 10z m2256 -159 c22 -8 71 -17 108 -21 44
-5 74 -14 86 -26 36 -36 58 -41 154 -34 l92 7 29 -38 c16 -21 44 -53 62 -70
17 -18 32 -36 32 -41 0 -4 12 -30 26 -57 l25 -48 -66 -68 c-82 -85 -101 -128
-115 -259 -11 -98 -13 -105 -44 -135 -46 -43 -66 -127 -43 -183 12 -31 14 -67
10 -189 -7 -191 9 -256 86 -349 28 -33 51 -64 51 -70 0 -5 -27 -18 -59 -27
-65 -19 -137 -69 -161 -110 -13 -24 -13 -32 3 -75 13 -35 17 -79 17 -166 0
-162 23 -201 110 -183 29 5 30 4 30 -34 0 -39 -1 -40 -34 -40 -28 0 -36 5 -46
30 -16 39 -65 80 -95 80 -16 0 -36 15 -62 46 -35 42 -41 45 -73 40 -137 -23
-161 -19 -259 40 -49 30 -64 34 -121 33 -36 0 -85 -4 -110 -8 l-46 -7 1 52 c0
44 -4 57 -27 81 -27 28 -27 30 -30 183 l-3 155 -75 3 c-49 2 -80 8 -91 18 -47
42 -153 20 -164 -34 -14 -63 -43 -82 -131 -82 -48 0 -67 5 -89 22 -34 27 -64
92 -65 139 0 55 -19 99 -47 110 -13 5 -123 9 -244 9 l-219 0 0 29 c0 40 22 55
66 46 27 -5 41 -2 54 10 17 16 19 15 29 -4 7 -12 26 -23 47 -27 50 -9 97 15
135 70 18 24 46 52 65 62 36 20 43 37 44 104 1 93 14 123 83 205 106 124 118
150 134 290 8 72 21 134 32 155 10 19 25 49 34 65 9 17 19 70 23 125 5 68 12
103 26 122 32 46 53 45 109 -6 56 -51 87 -61 204 -71 81 -6 81 -6 124 28 39
31 47 33 93 29 40 -4 55 -1 80 18 17 12 54 25 84 29 31 4 63 15 72 24 9 10 17
17 18 17 1 0 19 -6 41 -14z m1341 -105 c73 -34 135 -56 175 -62 34 -4 81 -11
104 -15 40 -6 45 -4 94 40 71 64 77 66 131 46 l47 -16 -19 -32 c-10 -17 -31
-39 -45 -48 l-26 -17 3 -252 c3 -224 5 -254 22 -279 l18 -28 -43 -62 c-23 -33
-75 -109 -116 -168 -41 -59 -78 -110 -83 -113 -5 -3 -41 17 -80 45 -61 45 -70
56 -70 83 0 31 -7 36 -205 150 -186 108 -227 137 -193 137 20 0 48 32 48 56 0
14 -13 33 -32 48 l-33 26 19 32 c108 189 111 239 22 388 -58 97 -53 104 64 98
77 -4 95 -9 198 -57z m-304 -89 c61 -104 60 -142 -6 -264 -53 -96 -53 -96 -78
-83 -39 22 -62 18 -148 -25 -78 -39 -132 -86 -132 -116 0 -10 -14 -14 -56 -14
-49 0 -58 -3 -84 -32 -46 -50 -55 -30 -41 83 14 111 24 131 100 205 85 82 91
101 55 175 l-28 61 24 19 c29 22 60 24 106 7 33 -11 79 -2 214 42 14 4 27 8
30 9 3 0 23 -30 44 -67z m-1991 -8 c44 -6 46 -8 40 -33 -3 -14 -16 -44 -29
-66 -29 -51 -54 -153 -54 -226 0 -75 -41 -157 -126 -248 -67 -73 -84 -107 -84
-176 0 -79 -10 -110 -41 -127 -16 -9 -43 -38 -61 -63 -41 -58 -67 -65 -102
-30 -20 20 -33 26 -52 21 -13 -3 -35 -9 -49 -12 -15 -4 -40 1 -61 11 -36 17
-58 15 -121 -11 -6 -3 -19 6 -28 20 -16 23 -15 26 5 55 23 30 22 43 -15 132
-5 13 5 23 40 40 26 13 49 27 52 32 3 5 17 -5 32 -22 24 -28 32 -31 93 -33 78
-2 84 2 119 92 43 109 35 186 -22 216 -37 18 -36 29 1 61 31 26 40 67 20 102
-14 27 -65 44 -106 38 -36 -6 -36 -6 -30 25 3 18 12 36 19 40 25 16 87 7 160
-22 127 -51 166 -39 187 55 17 78 29 102 63 119 35 17 78 20 150 10z m-636
-219 c0 -59 12 -70 75 -67 28 1 57 -3 65 -9 11 -10 8 -17 -22 -41 -27 -23 -35
-37 -35 -61 0 -38 5 -46 48 -76 26 -18 32 -29 32 -59 -1 -20 -11 -61 -24 -91
-23 -52 -25 -55 -62 -55 -32 -1 -42 4 -56 26 -28 44 -58 45 -133 3 -36 -21
-73 -48 -82 -61 -14 -23 -14 -29 5 -79 13 -36 16 -55 8 -55 -15 0 -266 293
-266 310 0 5 4 12 10 15 9 6 40 101 54 168 l6 27 93 0 c59 0 97 4 105 12 7 7
12 39 12 75 l0 63 83 0 84 0 0 -45z m2518 -174 c3 -5 29 -17 57 -27 42 -14 48
-18 33 -24 -48 -19 -90 -101 -102 -200 l-5 -46 -67 1 c-36 0 -73 -2 -81 -5
-16 -5 -17 3 -4 97 5 38 2 60 -10 84 -20 40 -16 45 77 94 71 36 92 42 102 26z
m-223 -170 c4 -3 1 -29 -8 -57 -12 -42 -12 -57 -2 -89 18 -54 37 -63 92 -43
34 13 54 14 78 7 51 -14 86 -11 92 9 3 9 10 45 16 80 20 114 0 116 227 -16
194 -112 203 -118 203 -148 0 -27 10 -38 80 -88 44 -32 82 -62 85 -66 3 -4 -2
-27 -10 -50 -23 -65 -20 -158 7 -200 21 -32 23 -48 23 -165 0 -138 7 -166 65
-252 l22 -32 -34 -21 c-37 -23 -75 -34 -163 -48 -33 -5 -84 -20 -113 -33 -48
-21 -55 -22 -85 -9 -19 9 -62 15 -108 14 l-77 0 -5 52 c-6 59 -33 118 -71 153
-19 18 -35 23 -73 23 -36 -1 -70 9 -143 42 -52 24 -104 45 -114 47 -11 2 -23
15 -27 29 -4 14 -17 60 -30 103 -14 50 -36 96 -61 129 -25 34 -38 62 -38 83 0
18 -6 52 -14 78 l-14 45 50 49 c28 26 59 67 70 91 19 43 19 43 -1 84 -20 41
-20 42 -1 55 26 18 26 76 2 124 l-18 36 45 -5 c25 -2 49 -7 53 -11z m-142
-206 l22 -36 -26 -38 c-15 -21 -38 -49 -52 -62 l-24 -23 -34 33 c-27 27 -34
40 -34 76 l-1 43 37 -5 c31 -4 41 0 61 21 14 14 26 26 27 26 1 0 12 -16 24
-35z m-119 -231 c12 -25 25 -75 30 -111 7 -47 17 -75 38 -102 35 -44 56 -84
69 -133 9 -34 8 -38 -8 -38 -11 0 -20 10 -24 24 -3 14 -24 46 -46 71 -56 65
-78 113 -90 193 -8 61 -5 142 7 142 2 0 13 -21 24 -46z m-1590 -226 c4 -32 18
-82 33 -112 43 -87 109 -117 230 -102 73 10 116 40 130 91 10 33 16 41 40 43
18 2 32 -3 41 -14 9 -13 30 -19 79 -22 l66 -4 0 -139 0 -138 31 -32 c26 -27
30 -36 24 -63 -23 -95 -2 -110 123 -92 l82 13 0 -68 c0 -57 -4 -72 -24 -96
-23 -26 -30 -28 -123 -33 l-98 -5 -3 -209 -2 -208 46 -55 c25 -30 45 -56 42
-58 -8 -9 -139 -25 -248 -31 -109 -6 -118 -5 -160 17 -44 23 -52 24 -319 27
l-275 3 -30 26 c-30 25 -34 26 -128 20 l-98 -6 0 26 c0 14 17 62 37 107 26 58
38 101 42 152 7 78 14 92 95 185 106 121 120 192 65 327 -26 64 -33 96 -39
193 -6 108 -10 122 -52 218 l-46 101 216 -2 217 -3 6 -57z m1741 -243 c10 -13
38 -30 61 -36 23 -6 79 -28 125 -49 l82 -39 0 -54 c0 -45 -4 -57 -25 -75 -29
-25 -34 -77 -10 -108 8 -10 14 -32 14 -49 1 -36 -32 -111 -60 -141 -14 -15
-19 -32 -17 -54 l3 -32 -135 -44 c-150 -48 -187 -74 -170 -118 8 -22 6 -24
-32 -30 -59 -10 -95 -32 -123 -76 -13 -21 -46 -53 -72 -71 -26 -18 -76 -59
-111 -92 l-63 -59 -64 4 c-59 4 -68 7 -93 36 -35 41 -122 66 -203 58 l-55 -5
-52 52 -52 53 0 177 0 177 75 0 c132 0 165 31 165 157 0 46 3 83 8 83 4 0 27
-14 52 -30 79 -53 190 -75 256 -49 26 9 31 7 59 -26 19 -23 46 -40 75 -49 39
-11 49 -20 71 -62 l26 -49 72 -3 c70 -3 71 -2 82 25 14 35 3 153 -15 171 -11
11 -21 11 -55 1 -61 -18 -67 -8 -63 107 3 87 -7 173 -23 215 -14 36 125 108
209 109 29 0 43 -6 58 -25z m362 -250 c20 -31 20 -79 0 -139 -18 -53 -16 -74
20 -201 28 -97 49 -125 96 -125 38 0 51 -20 56 -86 3 -51 1 -58 -21 -76 -14
-11 -32 -33 -41 -50 l-16 -30 -24 23 c-28 26 -30 43 -8 95 34 81 0 164 -66
164 -17 0 -47 15 -79 41 l-51 41 24 31 c51 69 70 176 40 226 -16 27 -15 29 10
54 23 23 26 35 27 94 l1 68 8 -53 c4 -29 15 -63 24 -77z m751 -424 l-7 -144
-46 -49 c-37 -39 -75 -64 -187 -118 -117 -58 -163 -87 -281 -182 -192 -154
-203 -163 -219 -195 -21 -40 -18 -93 11 -218 29 -125 34 -264 10 -299 -8 -12
-45 -33 -83 -48 -147 -59 -223 -124 -223 -192 0 -40 -10 -76 -21 -76 -9 0 -22
60 -23 105 0 17 6 60 12 96 13 70 14 59 -38 237 l-21 73 65 69 c43 46 69 83
76 109 6 25 22 48 40 61 36 26 47 74 30 134 -11 39 -9 54 15 138 23 82 25 100
16 135 -12 44 -60 93 -90 93 -9 0 -44 16 -76 36 -47 28 -66 34 -91 29 -29 -5
-32 -3 -37 27 -4 18 -9 43 -12 54 -6 20 3 25 122 62 180 58 177 57 212 33 16
-12 42 -21 58 -21 16 0 34 -5 41 -12 16 -16 15 -57 -3 -88 -33 -57 -6 -143 54
-175 47 -24 67 -19 92 23 12 20 35 48 51 62 30 26 33 38 30 137 -2 49 -7 67
-26 90 -29 35 -66 139 -66 187 0 19 9 59 21 89 26 69 48 76 127 47 63 -24 101
-21 166 12 22 11 72 24 110 29 42 5 93 20 126 37 l55 27 8 -135 c5 -74 6 -200
2 -279z m-1212 -263 c6 -4 30 -4 52 -1 34 4 49 0 88 -25 26 -16 63 -33 83 -36
27 -6 39 -15 51 -41 16 -33 15 -39 0 -88 -30 -94 -36 -148 -24 -200 10 -46 10
-48 -21 -80 -17 -17 -37 -49 -44 -69 -16 -46 -132 -168 -160 -168 -41 0 -144
32 -173 54 -16 13 -48 32 -70 43 -64 33 -78 54 -70 105 8 51 2 57 -65 84 -70
27 -97 50 -135 115 -19 33 -35 61 -35 63 0 1 13 1 30 -2 58 -8 96 7 146 58 27
27 80 71 119 97 47 32 76 60 87 85 12 25 27 39 50 46 64 20 73 19 76 -8 2 -14
9 -28 15 -32z m-1975 -143 l25 -25 271 0 c270 0 271 0 326 -26 51 -24 62 -25
145 -20 66 5 85 4 73 -4 -16 -10 -18 -32 -18 -230 l0 -219 -57 -3 -58 -3 -3
-370 -2 -370 -63 -30 c-34 -16 -79 -29 -100 -29 -33 -1 -43 6 -78 47 -42 49
-81 61 -107 35 -10 -10 -22 -1 -56 37 -67 76 -93 136 -101 235 -4 48 -17 110
-30 145 -18 48 -22 80 -22 151 1 110 -13 144 -164 385 -117 186 -177 295 -167
304 10 11 101 24 132 19 16 -2 40 -15 54 -29z m1409 -155 c67 -104 109 -147
166 -168 51 -19 51 -20 49 -58 -4 -56 25 -96 97 -135 74 -41 74 -58 -3 -74
-16 -3 -42 -21 -57 -38 -41 -46 -41 -45 -79 -70 -19 -13 -50 -45 -68 -72 -19
-30 -43 -54 -60 -59 -38 -12 -56 -30 -77 -76 -14 -32 -24 -41 -52 -46 -55 -10
-133 3 -158 26 -17 16 -33 21 -61 18 -35 -3 -43 -9 -80 -66 -47 -72 -66 -88
-120 -100 -61 -13 -75 -7 -62 29 16 47 1 96 -43 140 l-39 39 0 145 0 144 58 3
57 3 3 222 2 221 28 6 c15 3 69 10 120 17 82 11 94 10 110 -5 21 -19 45 -20
73 -5 26 13 97 28 129 26 19 -2 35 -17 67 -67z m557 -459 l49 -6 17 -65 c10
-36 25 -85 35 -110 11 -31 15 -60 10 -93 -8 -69 -13 -76 -48 -75 -25 1 -39 -8
-69 -43 -88 -101 -64 -196 53 -207 41 -4 56 -1 81 18 16 12 31 20 33 18 2 -2
-4 -22 -14 -44 -13 -27 -107 -130 -287 -311 -229 -230 -278 -274 -333 -301
-47 -23 -78 -32 -115 -32 -35 0 -66 -8 -96 -24 -43 -23 -51 -24 -191 -19 -159
6 -243 -6 -348 -51 -30 -13 -62 -21 -72 -19 -27 7 -107 80 -114 104 -4 11 -1
51 6 88 16 93 8 126 -51 196 -32 39 -55 79 -66 115 -9 30 -27 76 -40 102 -22
44 -31 78 -19 78 3 0 25 -20 48 -45 42 -44 46 -45 103 -45 49 0 75 7 142 40
l82 39 0 178 c1 162 2 176 16 158 9 -12 13 -30 10 -45 -19 -83 -19 -93 -1
-106 31 -23 134 -18 185 9 40 20 58 39 124 133 16 23 21 25 30 12 22 -30 56
-38 154 -38 109 0 108 0 147 68 11 20 38 45 60 56 24 13 53 41 75 74 21 32 48
59 66 67 17 7 45 30 62 52 24 31 41 42 70 47 21 3 47 15 58 27 16 17 25 20 59
13 22 -4 62 -10 89 -13z"/>
<path d="M5405 940 c-11 -4 -40 -29 -65 -54 -24 -25 -49 -46 -56 -46 -6 0 -17
-7 -25 -16 -15 -18 -1 -67 38 -126 33 -49 74 -66 108 -44 15 10 29 24 32 32 3
8 17 14 31 14 18 0 39 14 68 45 78 85 82 133 12 178 -43 28 -101 35 -143 17z
m114 -69 l24 -18 -32 -47 c-28 -40 -37 -46 -66 -46 -28 0 -37 -5 -50 -31 -14
-25 -19 -28 -31 -18 -9 7 -22 25 -30 40 -14 27 -13 29 34 78 69 72 100 80 151
42z"/>
<path d="M7979 2932 c-18 -16 -38 -50 -49 -82 -15 -45 -28 -62 -72 -95 -32
-25 -65 -62 -83 -95 -19 -34 -44 -62 -66 -75 -19 -11 -54 -35 -77 -54 -24 -18
-71 -42 -106 -52 -99 -30 -125 -52 -173 -149 -46 -93 -49 -114 -31 -237 l12
-83 -42 -58 c-156 -216 -160 -225 -135 -352 9 -47 16 -126 17 -176 1 -81 4
-95 28 -132 39 -57 108 -96 173 -96 41 0 64 7 112 36 33 19 77 41 96 47 79 27
168 176 291 489 31 79 67 165 81 191 13 27 40 104 60 172 34 116 40 127 89
179 42 43 56 67 66 109 22 94 -3 367 -43 463 -33 79 -93 99 -148 50z m91 -317
c12 -151 5 -184 -53 -244 -56 -58 -69 -83 -102 -206 -15 -55 -38 -121 -51
-146 -13 -26 -55 -127 -94 -225 -77 -192 -159 -361 -189 -388 -27 -25 -191
-106 -213 -106 -11 0 -38 17 -59 39 l-39 39 6 73 c4 53 2 92 -10 135 -25 98
-22 113 41 200 31 44 72 102 91 129 l34 50 -7 105 c-3 58 -7 114 -7 125 -1 31
48 138 72 157 11 9 46 22 77 29 33 8 76 27 102 46 25 19 59 41 75 51 55 33 97
75 122 123 14 29 40 59 66 77 58 40 74 60 89 111 l13 44 13 -49 c7 -27 17
-103 23 -169z"/>
</g>
</svg>
