<svg xmlns="http://www.w3.org/2000/svg" viewBox="0 0 32 32" x="0px" y="0px"><title>receipt, payment, shopping, enterprice, bill_10</title><g data-name="Layer 2"><path d="M16,23.89a1,1,0,0,0,1-1V21.76a3.5,3.5,0,0,0,2.45-3.82,3.65,3.65,0,0,0-3.51-3,1.53,1.53,0,0,1-1.42-1.52A1.49,1.49,0,0,1,16,11.93h0a1.5,1.5,0,0,1,1,.43,1.71,1.71,0,0,1,.33.48,1,1,0,0,0,.95.57,1,1,0,0,0,.92-1.28,3.59,3.59,0,0,0-.79-1.19A3.48,3.48,0,0,0,17,10.1V8.92a1,1,0,0,0-2,0v1.15a3.27,3.27,0,0,0-2.14,1.8A3.54,3.54,0,0,0,16,16.93a1.5,1.5,0,0,1,1.47,1.52A1.47,1.47,0,0,1,16,19.92,1.45,1.45,0,0,1,14.64,19a1,1,0,0,0-.94-.59,1,1,0,0,0-.93,1.34,3.5,3.5,0,0,0,2.23,2v1.12A1,1,0,0,0,16,23.89Z"/><path d="M15.28,1A15,15,0,0,0,16,31a15,15,0,0,0,7.57-2,1,1,0,0,0,.34-1.45h0a1,1,0,0,0-1.31-.31A13,13,0,1,1,28.39,20a1,1,0,1,0,1.9.62A15,15,0,0,0,15.28,1Z"/></g></svg>