<svg xmlns="http://www.w3.org/2000/svg" xmlns:xlink="http://www.w3.org/1999/xlink" version="1.1" x="0px" y="0px" viewBox="0 0 100 100" style="enable-background:new 0 0 100 100;" xml:space="preserve"><path d="M30.8227539,29.5166016h-0.1782227c-1.8623047,0-3.3774414-1.5112305-3.3774414-3.3691406  s1.5151367-3.3691406,3.3774414-3.3691406s3.3774414,1.5112305,3.3774414,3.3691406c0,0.5522461,0.4477539,1,1,1s1-0.4477539,1-1  c0-2.5880127-1.843689-4.7537842-4.2885742-5.2578735v-1.0116577c0-0.5522461-0.4477539-1-1-1s-1,0.4477539-1,1v0.9923706  c-2.5307617,0.4351196-4.4663086,2.6281738-4.4663086,5.2771606c0,2.9604492,2.4121094,5.3691406,5.3774414,5.3691406h0.1782227  c1.8623047,0,3.3774414,1.5112305,3.3774414,3.3691406c0,1.8574219-1.5151367,3.3686523-3.3774414,3.3686523  s-3.3774414-1.5112305-3.3774414-3.3686523c0-0.5522461-0.4477539-1-1-1s-1,0.4477539-1,1  c0,2.5878906,1.8434448,4.7530518,4.2880859,5.2572632v1.0117798c0,0.5522461,0.4477539,1,1,1s1-0.4477539,1-1v-0.9923096  c2.5310059-0.4348755,4.4667969-2.6276245,4.4667969-5.2767334C36.2001953,31.925293,33.7880859,29.5166016,30.8227539,29.5166016z"/><path d="M46.6113281,31.5166016h0.1782227c1.8618164,0,3.3769531,1.5112305,3.3769531,3.3691406  c0,1.8574219-1.5151367,3.3686523-3.3769531,3.3686523c-1.8623047,0-3.3774414-1.5112305-3.3774414-3.3686523  c0-0.5522461-0.4477539-1-1-1s-1,0.4477539-1,1c0,2.5878906,1.8434448,4.7530518,4.2880859,5.2572632v1.0117798  c0,0.5522461,0.4477539,1,1,1s1-0.4477539,1-1v-0.9923096c2.5305786-0.4349365,4.4663086-2.6276855,4.4663086-5.2767334  c0-2.9604492-2.4121094-5.3691406-5.3769531-5.3691406h-0.1782227c-1.8623047,0-3.3774414-1.5112305-3.3774414-3.3691406  s1.5151367-3.3691406,3.3774414-3.3691406s3.3774414,1.5112305,3.3774414,3.3691406c0,0.5522461,0.4477539,1,1,1s1-0.4477539,1-1  c0-2.5880127-1.843689-4.7537842-4.2885742-5.2578735v-1.0116577c0-0.5522461-0.4477539-1-1-1s-1,0.4477539-1,1v0.9923706  c-2.5307617,0.4351196-4.4663086,2.6281738-4.4663086,5.2771606C41.2338867,29.1079102,43.6459961,31.5166016,46.6113281,31.5166016  z"/><path d="M30.8227539,57.2524414h-0.1782227c-1.8623047,0-3.3774414-1.5112305-3.3774414-3.3691406  s1.5151367-3.3691406,3.3774414-3.3691406s3.3774414,1.5112305,3.3774414,3.3691406c0,0.5522461,0.4477539,1,1,1s1-0.4477539,1-1  c0-2.5880127-1.843689-4.7537842-4.2885742-5.2578735v-1.0116577c0-0.5522461-0.4477539-1-1-1s-1,0.4477539-1,1v0.9923706  c-2.5307617,0.4351196-4.4663086,2.6281738-4.4663086,5.2771606c0,2.9604492,2.4121094,5.3691406,5.3774414,5.3691406h0.1782227  c1.8623047,0,3.3774414,1.5112305,3.3774414,3.3691406s-1.5151367,3.3691406-3.3774414,3.3691406  s-3.3774414-1.5112305-3.3774414-3.3691406c0-0.5522461-0.4477539-1-1-1s-1,0.4477539-1,1  c0,2.5878906,1.8434448,4.753479,4.2880859,5.2577515v1.0117798c0,0.5522461,0.4477539,1,1,1s1-0.4477539,1-1v-0.9923096  c2.5310059-0.4349976,4.4667969-2.6281128,4.4667969-5.2772217C36.2001953,59.6611328,33.7880859,57.2524414,30.8227539,57.2524414z  "/><path d="M46.7895508,57.2524414h-0.1782227c-1.8623047,0-3.3774414-1.5112305-3.3774414-3.3691406  s1.5151367-3.3691406,3.3774414-3.3691406s3.3774414,1.5112305,3.3774414,3.3691406c0,0.5522461,0.4477539,1,1,1s1-0.4477539,1-1  c0-2.5880127-1.843689-4.7537842-4.2885742-5.2578735v-1.0116577c0-0.5522461-0.4477539-1-1-1s-1,0.4477539-1,1v0.9923706  c-2.5307617,0.4351196-4.4663086,2.6281738-4.4663086,5.2771606c0,2.9604492,2.4121094,5.3691406,5.3774414,5.3691406h0.1782227  c1.8618164,0,3.3769531,1.5112305,3.3769531,3.3691406s-1.5151367,3.3691406-3.3769531,3.3691406  c-1.8623047,0-3.3774414-1.5112305-3.3774414-3.3691406c0-0.5522461-0.4477539-1-1-1s-1,0.4477539-1,1  c0,2.5878906,1.8434448,4.753479,4.2880859,5.2577515v1.0117798c0,0.5522461,0.4477539,1,1,1s1-0.4477539,1-1v-0.9923096  c2.5305786-0.4349976,4.4663086-2.6281738,4.4663086-5.2772217C52.1665039,59.6611328,49.7543945,57.2524414,46.7895508,57.2524414z  "/><path d="M10.9165039,80.1826172h19.6669922V89c0,0.5522461,0.4477539,1,1,1h57.3330078c0.5522461,0,1-0.4477539,1-1V20.8173828  c0-0.5522461-0.4477539-1-1-1H69.25V11c0-0.5522461-0.4477539-1-1-1H10.9165039c-0.5522461,0-1,0.4477539-1,1v68.1826172  C9.9165039,79.7348633,10.3642578,80.1826172,10.9165039,80.1826172z M79.3637695,88l8.5527344-8.5527344V88H79.3637695z   M77.949707,86.5859375v-8.5527344h8.5527344L77.949707,86.5859375z M87.9165039,21.8173828v54.2158203H76.949707  c-0.5522461,0-1,0.4477539-1,1V88H32.5834961v-7.8173828H68.25c0.5522461,0,1-0.4477539,1-1V21.8173828H87.9165039z   M67.25,69.6298828v8.5527344h-8.5527344L67.25,69.6298828z M57.2832031,76.7685547v-8.5527344h8.5527344L57.2832031,76.7685547z   M11.9165039,12H67.25v54.2158203H56.2832031c-0.5522461,0-1,0.4477539-1,1v10.9667969H11.9165039V12z"/></svg>