<svg xmlns="http://www.w3.org/2000/svg" xmlns:xlink="http://www.w3.org/1999/xlink" version="1.1" x="0px" y="0px" viewBox="0 0 100 100" style="enable-background:new 0 0 100 100;" xml:space="preserve"><g><path d="M14,89.6c1.1,0,2-0.9,2-2C16,70.7,29.7,57,46.6,57h8.7C72.3,57,86,70.7,86,87.6c0,1.1,0.9,2,2,2s2-0.9,2-2   C90,68.5,74.5,53,55.4,53h-8.7C27.5,53,12,68.5,12,87.6C12,88.7,12.9,89.6,14,89.6z"/><path d="M35,23v8c0,8.8,7.2,16,16,16s16-7.2,16-16v-8c0-8.8-7.2-16-16-16S35,14.2,35,23z M63,23v8c0,6.6-5.4,12-12,12   s-12-5.4-12-12v-8c0-6.6,5.4-12,12-12S63,16.4,63,23z"/></g></svg>